<svg width="251" height="35" viewBox="0 0 251 35" fill="none" xmlns="http://www.w3.org/2000/svg">
<g id="Everyone 1" clip-path="url(#clip0_511_626)">
<g id="Group">
<g id="Group_2">
<path id="Vector" d="M40.3259 24.9438H41.2705V28.2186C41.4694 27.8944 41.7331 27.6544 42.0617 27.4988C42.3902 27.3431 42.7199 27.2664 43.0517 27.2664C43.3835 27.2664 43.7013 27.3248 43.9877 27.4426C44.2741 27.5604 44.5173 27.7268 44.7248 27.943C44.9301 28.1591 45.0923 28.4229 45.2079 28.7298C45.3235 29.0368 45.3819 29.3794 45.3819 29.7555C45.3819 30.1316 45.3192 30.5002 45.1928 30.8201C45.0663 31.14 44.8901 31.4156 44.6653 31.6415C44.4394 31.8696 44.1736 32.0457 43.8688 32.1711C43.564 32.2976 43.23 32.3602 42.8723 32.3602C42.534 32.3602 42.2314 32.317 41.9655 32.2338C41.6996 32.1506 41.451 32.0241 41.2186 31.8544L41.1895 32.2532H40.3237V24.9438L40.3259 24.9416V24.9438ZM41.8887 31.3551C42.1341 31.4567 42.4259 31.5064 42.7664 31.5064C43.2646 31.5064 43.6613 31.3486 43.9617 31.0352C44.2589 30.7217 44.4103 30.2905 44.4103 29.7479C44.4103 29.5091 44.3768 29.2897 44.3065 29.0919C44.2363 28.8941 44.1347 28.7244 44.0017 28.5817C43.8688 28.4402 43.7088 28.3267 43.5186 28.2456C43.3284 28.1646 43.1198 28.1235 42.8874 28.1235C42.6421 28.1235 42.4183 28.171 42.2195 28.2629C42.0206 28.358 41.8498 28.4812 41.7072 28.6369C41.5645 28.7925 41.4543 28.973 41.3775 29.1762C41.3008 29.3794 41.263 29.5934 41.263 29.8117V30.9779C41.4348 31.127 41.6445 31.2503 41.8898 31.3518L41.8877 31.354L41.8887 31.3551Z" fill="#333333"/>
<path id="Vector_2" d="M48.3225 30.9994L49.7362 27.3549H50.7305L48.6802 32.3612C48.4079 33.067 48.0987 33.5771 47.7486 33.8884C47.3984 34.1997 46.9661 34.3553 46.4494 34.3553H46.3597L46.1706 33.5101H46.2203C46.5445 33.5101 46.8364 33.4128 47.0903 33.2194C47.3454 33.0259 47.5778 32.6714 47.7831 32.1591L47.8242 32.0532L45.6929 27.3582H46.7283L48.3203 31.0026L48.3225 31.0005V30.9994Z" fill="#333333"/>
</g>
<g id="Group_3">
<path id="Vector_3" d="M116.249 26.3514L116.598 25.6618C116.041 25.3981 115.392 25.2652 114.649 25.2652C113.95 25.2652 113.344 25.41 112.829 25.7007C112.313 25.9915 111.92 26.4043 111.646 26.9415C111.373 27.4786 111.235 28.1034 111.235 28.8156C111.235 29.9548 111.519 30.8346 112.086 31.4517C112.652 32.0688 113.459 32.379 114.503 32.379C115.225 32.379 115.83 32.2893 116.321 32.1088V31.4031C115.688 31.5771 115.124 31.6624 114.63 31.6624C113.825 31.6624 113.204 31.4171 112.772 30.9232C112.336 30.4292 112.12 29.73 112.12 28.8232C112.12 27.9164 112.346 27.2495 112.797 26.7437C113.248 26.2368 113.864 25.9839 114.642 25.9839C115.179 25.9839 115.715 26.1082 116.252 26.3535H116.25L116.249 26.3514ZM121.68 31.6646C122.118 31.1891 122.334 30.5298 122.334 29.6846C122.334 28.8394 122.116 28.2071 121.678 27.7251C121.24 27.242 120.65 27.0009 119.905 27.0009C119.161 27.0009 118.534 27.2376 118.101 27.7089C117.668 28.1801 117.452 28.8383 117.452 29.6846C117.452 30.2304 117.551 30.7059 117.752 31.1145C117.953 31.5209 118.238 31.8343 118.605 32.0526C118.973 32.2709 119.394 32.3801 119.871 32.3801C120.64 32.3801 121.242 32.1434 121.679 31.6679L121.681 31.6657L121.68 31.6646ZM121.091 28.1801C121.363 28.5227 121.502 29.0231 121.502 29.6824C121.502 30.3417 121.364 30.8529 121.091 31.1999C120.819 31.5446 120.419 31.7187 119.891 31.7187C119.364 31.7187 118.964 31.5446 118.694 31.1977C118.424 30.8508 118.285 30.3449 118.285 29.6824C118.285 29.0199 118.418 28.5097 118.686 28.1714C118.954 27.8332 119.352 27.6645 119.879 27.6645C120.407 27.6645 120.815 27.8364 121.088 28.179L121.09 28.1812L121.091 28.1801ZM127.469 32.2828H128.135V27.096H127.329V29.8229C127.329 30.4952 127.201 30.9794 126.944 31.2755C126.686 31.5727 126.281 31.7197 125.723 31.7197C125.304 31.7197 124.995 31.616 124.796 31.4063C124.599 31.1988 124.501 30.8832 124.501 30.4595V27.095H123.687V30.4887C123.687 31.1469 123.847 31.6279 124.17 31.9272C124.492 32.2277 124.975 32.3758 125.623 32.3758C125.997 32.3758 126.331 32.3077 126.624 32.1726C126.917 32.0375 127.145 31.8408 127.309 31.5857H127.352L127.47 32.2828H127.469ZM133.475 32.2828H134.28V28.8977C134.28 28.2352 134.118 27.7521 133.795 27.4516C133.473 27.149 132.99 27.0009 132.349 27.0009C131.983 27.0009 131.652 27.0712 131.354 27.2106C131.057 27.35 130.827 27.5489 130.662 27.804H130.624L130.493 27.0939H129.839V32.2807H130.644V29.5581C130.644 28.8837 130.773 28.3984 131.032 28.1055C131.292 27.8126 131.698 27.6656 132.255 27.6656C132.674 27.6656 132.983 27.7694 133.182 27.9791C133.379 28.1866 133.477 28.5022 133.477 28.9258V32.2818H133.475V32.2828ZM139.23 27.9369L139.479 27.269C139.334 27.1966 139.134 27.1339 138.877 27.0798C138.622 27.0258 138.364 26.9988 138.11 26.9988C137.319 26.9988 136.708 27.2355 136.282 27.7089C135.854 28.1823 135.639 28.8524 135.639 29.7202C135.639 30.5881 135.85 31.2204 136.272 31.6819C136.693 32.1445 137.289 32.3747 138.059 32.3747C138.598 32.3747 139.046 32.285 139.401 32.1045V31.4074C138.936 31.5944 138.481 31.6873 138.039 31.6873C137.522 31.6873 137.132 31.5155 136.869 31.175C136.605 30.8346 136.474 30.3449 136.474 29.7073C136.474 28.3627 137.013 27.6916 138.093 27.6916C138.255 27.6916 138.44 27.7143 138.65 27.7597C138.859 27.8051 139.054 27.8634 139.231 27.9337V27.938L139.23 27.9369ZM141.401 26.0833C141.497 25.9979 141.541 25.865 141.541 25.6888C141.541 25.5127 141.493 25.3819 141.401 25.2965C141.306 25.2111 141.196 25.1679 141.068 25.1679C140.932 25.1679 140.819 25.2111 140.729 25.2943C140.64 25.3776 140.594 25.5083 140.594 25.6888C140.594 25.8693 140.64 25.9979 140.729 26.0833C140.819 26.1687 140.932 26.2141 141.068 26.2141C141.203 26.2141 141.309 26.1709 141.401 26.0833ZM141.464 32.2807V27.0939H140.659V32.2807H141.464ZM143.172 32.2807H143.977V24.915H143.172V32.2807Z" fill="#333333"/>
<path id="Vector_4" d="M87.1705 27.1497L87.7574 25.6765C87.0581 25.3523 86.3275 25.1891 85.5612 25.1891C84.8598 25.1891 84.2513 25.3361 83.7303 25.6268C83.2115 25.9175 82.8149 26.3347 82.5371 26.8784C82.2593 27.422 82.1221 28.051 82.1221 28.7655C82.1221 29.9111 82.4063 30.7866 82.977 31.3929C83.5477 31.9992 84.368 32.3019 85.4369 32.3019C86.1837 32.3019 86.8528 32.1732 87.444 31.9182V30.337C87.1467 30.4569 86.8506 30.5607 86.5577 30.6439C86.2648 30.7293 85.96 30.7725 85.6466 30.7725C84.609 30.7725 84.0902 30.1067 84.0902 28.7741C84.0902 28.1332 84.2188 27.6306 84.4739 27.2653C84.729 26.9 85.0846 26.7195 85.5407 26.7195C85.8411 26.7195 86.1221 26.7606 86.3837 26.8438C86.6452 26.9248 86.9068 27.0264 87.1684 27.1464L87.1705 27.1486V27.1497ZM89.6823 26.3261C90.3567 26.3261 90.695 26.0559 90.695 25.5122C90.695 25.242 90.614 25.0367 90.4518 24.8962C90.2897 24.7568 90.0325 24.6887 89.6802 24.6887C89.3278 24.6887 89.0738 24.7567 88.9139 24.8919C88.7561 25.027 88.6772 25.2345 88.6772 25.5122C88.6772 26.0559 89.0111 26.3261 89.6812 26.3261H89.6834H89.6823ZM90.6226 32.21V26.847H88.7258V32.21H90.6226ZM94.6367 30.8406C94.2941 30.8406 94.1223 30.6666 94.1223 30.3197V28.2315H95.4711V26.8449H94.1223V25.7716H92.8815L92.3919 26.8989L91.5489 27.4804V28.2337H92.2146V30.444C92.2146 31.0751 92.3541 31.542 92.6362 31.8468C92.9182 32.1516 93.3754 32.3051 94.0142 32.3051C94.3255 32.3051 94.5957 32.2824 94.8259 32.237C95.0561 32.1916 95.2993 32.1149 95.5543 32.0068V30.6579C95.1977 30.7822 94.894 30.8428 94.6389 30.8428L94.6367 30.8406ZM97.4782 26.3261C98.1548 26.3261 98.4909 26.0559 98.4909 25.5122C98.4909 25.242 98.4098 25.0367 98.2477 24.8962C98.0856 24.7568 97.8284 24.6887 97.476 24.6887C97.1237 24.6887 96.8697 24.7567 96.7097 24.8919C96.5519 25.027 96.473 25.2345 96.473 25.5122C96.473 26.0559 96.807 26.3261 97.4771 26.3261H97.4793H97.4782ZM98.4185 32.21V26.847H96.5216V32.21H98.4185ZM101.42 30.0268H104.809V29.2032C104.809 28.412 104.583 27.8046 104.133 27.3831C103.682 26.9616 103.043 26.7519 102.215 26.7519C101.345 26.7519 100.677 26.9929 100.208 27.4782C99.7392 27.9635 99.5047 28.6574 99.5047 29.5642C99.5047 30.471 99.7576 31.1184 100.262 31.5918C100.767 32.0673 101.478 32.304 102.394 32.304C102.834 32.304 103.212 32.2748 103.529 32.2186C103.845 32.1624 104.153 32.0587 104.448 31.9117V30.5812C104.121 30.7304 103.819 30.8341 103.539 30.8968C103.259 30.9573 102.952 30.9898 102.622 30.9898C102.256 30.9898 101.968 30.9044 101.756 30.7347C101.544 30.5628 101.432 30.3283 101.42 30.0289V30.0268ZM102.863 28.2434C103.008 28.3991 103.081 28.6044 103.089 28.8638H101.46C101.485 28.5709 101.574 28.3537 101.724 28.2186C101.875 28.0813 102.06 28.0132 102.282 28.0132C102.526 28.0132 102.718 28.09 102.862 28.2456V28.2434H102.863ZM108.765 28.117C109.047 28.1937 109.313 28.2888 109.566 28.3991L110.08 27.2059C109.738 27.0567 109.406 26.9443 109.088 26.8676C108.77 26.7908 108.43 26.753 108.067 26.753C107.345 26.753 106.788 26.8924 106.394 27.1702C105.999 27.448 105.803 27.836 105.803 28.3342C105.803 28.7287 105.902 29.054 106.103 29.3102C106.304 29.5674 106.655 29.7976 107.161 29.9976C107.713 30.2116 108.047 30.3564 108.162 30.431C108.277 30.5056 108.334 30.5888 108.334 30.6839C108.334 30.8665 108.128 30.9595 107.718 30.9595C107.442 30.9595 107.131 30.9184 106.78 30.8352C106.427 30.7541 106.107 30.6482 105.812 30.5218V32.0036C106.126 32.116 106.433 32.1949 106.732 32.2381C107.031 32.2813 107.386 32.3008 107.794 32.3008C108.543 32.3008 109.121 32.1538 109.519 31.8609C109.92 31.568 110.121 31.1324 110.121 30.5596C110.121 30.2732 110.076 30.03 109.989 29.829C109.901 29.6279 109.76 29.455 109.571 29.3059C109.382 29.1567 109.096 29.0054 108.71 28.853C108.193 28.6541 107.88 28.5212 107.772 28.4585C107.664 28.3926 107.61 28.3169 107.61 28.224C107.61 28.0748 107.765 28.0002 108.074 28.0002C108.253 28.0002 108.483 28.0381 108.762 28.1148L108.766 28.117H108.765Z" fill="#333333"/>
<path id="Vector_5" d="M56.3319 25.903C56.8842 25.903 57.4527 26.023 58.0395 26.264L58.2968 25.5626C57.7056 25.3097 57.056 25.1832 56.3524 25.1832C55.6488 25.1832 55.1343 25.341 54.7236 25.6566C54.3129 25.9722 54.1076 26.3959 54.1076 26.9309C54.1076 27.4659 54.2492 27.8507 54.5313 28.1663C54.8133 28.4818 55.2846 28.7553 55.9449 28.9844C56.4162 29.1487 56.7685 29.2957 57.0009 29.4243C57.2311 29.5529 57.3975 29.6945 57.4948 29.848C57.5942 30.0015 57.644 30.1971 57.644 30.437C57.644 30.8002 57.5045 31.0823 57.2268 31.2876C56.949 31.4908 56.534 31.5924 55.986 31.5924C55.6499 31.5924 55.3094 31.5589 54.969 31.4886C54.6264 31.4184 54.3108 31.3244 54.02 31.2044V31.9804C54.4729 32.1923 55.1181 32.2982 55.959 32.2982C56.735 32.2982 57.3478 32.1263 57.8018 31.7859C58.2546 31.4454 58.4805 30.9699 58.4805 30.3603C58.4805 29.8869 58.3411 29.501 58.0612 29.206C57.7812 28.9088 57.27 28.631 56.5275 28.3738C56.0854 28.2181 55.7558 28.0787 55.5418 27.9501C55.3278 27.8215 55.1743 27.6821 55.0835 27.5286C54.9928 27.3751 54.9484 27.1795 54.9484 26.9395C54.9484 26.6153 55.0706 26.3602 55.3159 26.1776C55.5612 25.9949 55.9028 25.902 56.3394 25.902H56.3308L56.3319 25.903ZM66.5747 32.2041H67.3799V28.8191C67.3799 28.1565 67.2307 27.6734 66.9313 27.3729C66.6309 27.0703 66.1823 26.9222 65.5803 26.9222C65.1945 26.9222 64.854 27.0011 64.5525 27.1589C64.252 27.3167 64.0229 27.5307 63.8651 27.802H63.8273C63.5722 27.2151 63.0285 26.9222 62.1985 26.9222C61.8559 26.9222 61.5468 26.9925 61.269 27.1341C60.9934 27.2757 60.7794 27.4724 60.6259 27.7253H60.5881L60.4573 27.0152H59.8034V32.202H60.6086V29.4794C60.6086 28.8072 60.7264 28.3251 60.961 28.029C61.1955 27.7328 61.5651 27.5869 62.0688 27.5869C62.4546 27.5869 62.7367 27.6907 62.9172 27.8961C63.0977 28.1036 63.1874 28.4127 63.1874 28.8255V32.202H63.9926V29.3043C63.9926 28.7207 64.1126 28.2895 64.3515 28.0074C64.5903 27.7253 64.9599 27.5859 65.4614 27.5859C65.843 27.5859 66.124 27.6896 66.3045 27.895C66.485 28.1025 66.5747 28.4116 66.5747 28.8245V32.2009L66.5768 32.2052L66.5747 32.2041ZM72.3051 32.2041H72.9006V28.6634C72.9006 28.0571 72.7472 27.6172 72.4424 27.3416C72.1376 27.066 71.6663 26.9287 71.0352 26.9287C70.7217 26.9287 70.4083 26.9698 70.097 27.0465C69.7857 27.1254 69.4993 27.2335 69.2356 27.374L69.4842 27.976C70.043 27.7102 70.5445 27.5794 70.9865 27.5794C71.381 27.5794 71.6674 27.6766 71.8479 27.8701C72.0284 28.0636 72.116 28.364 72.116 28.7726V29.0947L71.2135 29.1238C69.4972 29.1736 68.6401 29.7237 68.6401 30.7699C68.6401 31.2595 68.7892 31.6356 69.0886 31.9015C69.3891 32.1652 69.8009 32.2982 70.3272 32.2982C70.7217 32.2982 71.0514 32.2398 71.3129 32.1242C71.5766 32.0096 71.8404 31.788 72.1041 31.4638H72.1419L72.3019 32.2009L72.304 32.2031L72.3051 32.2041ZM72.0976 29.6534V30.1225C72.0976 30.6056 71.956 30.9818 71.6696 31.2498C71.3832 31.5178 70.9908 31.6508 70.4904 31.6508C70.1748 31.6508 69.9262 31.5762 69.7512 31.427C69.5761 31.2779 69.4874 31.0617 69.4874 30.7796C69.4874 30.4165 69.629 30.1485 69.9111 29.9766C70.1932 29.8048 70.6558 29.7086 71.2956 29.6859L72.1008 29.6524H72.0987L72.0976 29.6534ZM77.5081 27.7069L77.6183 26.9784C77.4314 26.9406 77.2195 26.9222 76.9828 26.9222C76.6489 26.9222 76.3441 27.0152 76.0674 27.1978C75.7907 27.3805 75.5508 27.6421 75.3551 27.9782H75.3173L75.2244 27.0174H74.5586V32.2041H75.3638V29.4211C75.3638 28.9142 75.5173 28.4873 75.822 28.1468C76.1268 27.8063 76.4943 27.6345 76.9245 27.6345C77.0909 27.6345 77.2855 27.6572 77.5059 27.7047L77.5081 27.7069ZM79.7043 31.3989C79.553 31.2325 79.4762 30.9926 79.4762 30.6791V27.6258H81.0186V27.0152H79.4762V25.8133H79.0115L78.6732 26.9212L77.9134 27.2486V27.628H78.6732V30.7126C78.6732 31.7707 79.1877 32.2982 80.2155 32.2982C80.3506 32.2982 80.5041 32.2841 80.6738 32.2571C80.8435 32.2301 80.971 32.1966 81.0596 32.1555V31.5535C80.9829 31.5762 80.877 31.5967 80.744 31.6162C80.6111 31.6356 80.4738 31.6475 80.3312 31.6475C80.0653 31.6475 79.8578 31.5643 79.7065 31.3968L79.7043 31.3989Z" fill="#333333"/>
</g>
</g>
<g id="Group_4">
<path id="Vector_6" d="M16.9913 20.5263C18.687 20.5263 20.0672 19.1461 20.0672 17.4503C20.0672 15.7545 18.687 14.3743 16.9913 14.3743C15.2955 14.3743 13.9153 15.7545 13.9153 17.4503C13.9153 19.1461 15.2955 20.5263 16.9913 20.5263ZM16.9913 15.7275C17.9402 15.7275 18.7141 16.5014 18.7141 17.4503C18.7141 18.3992 17.9402 19.1731 16.9913 19.1731C16.0423 19.1731 15.2685 18.3992 15.2685 17.4503C15.2685 16.5014 16.0423 15.7275 16.9913 15.7275Z" fill="#333333"/>
<path id="Vector_7" d="M32.8248 11.6562C32.6561 11.1958 32.4659 10.7472 32.2584 10.3095C32.2249 10.2371 32.1903 10.1625 32.1568 10.0912C30.461 6.611 27.6034 3.79875 24.0897 2.15916C24.0194 2.12782 23.9503 2.09648 23.8778 2.06405C23.4315 1.86302 22.9754 1.68037 22.5085 1.51825C20.777 0.917318 18.9191 0.58551 16.9845 0.58551C14.9504 0.58551 12.9995 0.948661 11.1913 1.61119C10.7309 1.7798 10.2824 1.97002 9.84249 2.17754C9.77007 2.21104 9.69766 2.24347 9.62633 2.27913C6.14289 3.97492 3.32847 6.83473 1.68889 10.3506C1.48353 10.7926 1.29439 11.2433 1.12471 11.7038C1.09769 11.7783 1.07499 11.8529 1.04797 11.9275C0.447042 13.6589 0.115234 15.5168 0.115234 17.4526C0.115234 19.4888 0.478385 21.4418 1.14092 23.2511C1.30953 23.7115 1.49975 24.1579 1.70726 24.5978C1.74077 24.6702 1.77319 24.7426 1.80886 24.8118C3.50464 28.2941 6.36662 31.1064 9.88248 32.746C9.95273 32.7773 10.0219 32.8087 10.0922 32.8411C10.5385 33.0421 10.9946 33.2248 11.4615 33.3869C13.1941 33.9889 15.0498 34.3207 16.9823 34.3207C19.0185 34.3207 20.9715 33.9576 22.7808 33.295C23.2412 33.1264 23.6876 32.9362 24.1275 32.7287C24.1999 32.6952 24.2745 32.6606 24.3458 32.6271C27.826 30.9313 30.6383 28.0715 32.2746 24.5578C32.48 24.1157 32.6691 23.665 32.8388 23.2046C32.8658 23.13 32.8907 23.0533 32.9155 22.9766C33.5175 21.244 33.8494 19.3883 33.8494 17.4558C33.8494 15.4217 33.4862 13.4687 32.8237 11.6627L32.8258 11.6584L32.8248 11.6562ZM24.0908 5.57667V3.66581C26.8652 5.10004 29.1533 7.34595 30.6372 10.089H28.8604C26.0394 10.089 23.5903 11.7146 22.3993 14.0783C21.9464 13.8232 21.5195 13.5033 21.1369 13.1175C20.7878 12.7684 20.4852 12.3803 20.2398 11.9653C22.529 10.7494 24.0918 8.34137 24.0918 5.57451V5.57667H24.0908ZM31.1268 11.4422L29.4494 13.1196C27.8822 14.6868 25.6428 15.1807 23.6509 14.6057C24.6344 12.7273 26.6004 11.4444 28.8625 11.4444H31.1268V11.4422ZM12.03 15.4563C12.5985 15.1386 13.1325 14.7419 13.6177 14.2588C14.1387 13.7378 14.5645 13.1542 14.892 12.5338C15.5189 12.7122 16.1771 12.8094 16.8612 12.8094C17.5984 12.8094 18.3095 12.6992 18.9807 12.4917C19.3028 13.0645 19.7027 13.5995 20.1804 14.0772C20.7013 14.5982 21.285 15.024 21.9054 15.3515C21.727 15.9783 21.6298 16.6366 21.6298 17.3207C21.6298 18.0578 21.7422 18.7712 21.9475 19.4423C21.379 19.7601 20.8429 20.1567 20.3598 20.6399C19.8389 21.1608 19.413 21.7444 19.0855 22.3648C18.4587 22.1865 17.8005 22.0892 17.1163 22.0892C16.3792 22.0892 15.6659 22.2016 14.9947 22.407C14.6769 21.8385 14.2803 21.3046 13.7972 20.8214C13.2805 20.3048 12.6991 19.8768 12.0722 19.5428C12.2505 18.9181 12.3446 18.2578 12.3446 17.5758C12.3446 16.8387 12.2322 16.1253 12.0268 15.4542L12.029 15.4563H12.03ZM22.7397 3.2043V5.57667C22.7397 7.7934 21.5044 9.72805 19.6865 10.73C19.5081 10.1658 19.4163 9.57025 19.4163 8.96392C19.4163 7.39459 20.0269 5.91713 21.1369 4.80714L22.7376 3.20646L22.7397 3.2043ZM16.9866 1.93652C18.5333 1.93652 20.0291 2.16673 21.4385 2.5904L20.1804 3.84846C18.8143 5.2146 18.0631 7.03036 18.0631 8.96068C18.0631 9.7475 18.1896 10.5127 18.4284 11.2379C17.928 11.3752 17.4027 11.4519 16.8612 11.4519C16.3608 11.4519 15.8755 11.3892 15.4108 11.2714C16.1684 8.79315 15.5729 5.98522 13.6156 4.03004L12.2603 2.67471C13.7507 2.19699 15.3384 1.93544 16.9866 1.93544V1.93652ZM10.9827 3.31238L12.6602 4.98979C14.2273 6.55696 14.7212 8.79639 14.1463 10.7883C12.2678 9.80478 10.9849 7.8388 10.9849 5.57667V3.31238H10.9827ZM9.62957 3.79767V5.57883C9.62957 8.39974 11.2551 10.8488 13.6188 12.0399C13.3638 12.4927 13.0438 12.9197 12.6602 13.3023C12.3056 13.6568 11.9187 13.954 11.508 14.1993C10.2921 11.9102 7.88407 10.3473 5.11937 10.3473H3.20526C4.64165 7.57076 6.88757 5.28269 9.63281 3.7955H9.63065L9.62957 3.79767ZM5.1172 11.7016C7.33394 11.7016 9.26642 12.9348 10.2683 14.7506C8.24506 15.3839 5.94726 14.9019 4.34875 13.3023L2.74808 11.7016H5.11829H5.1172ZM1.47489 17.4504C1.47489 15.9038 1.7051 14.4079 2.12878 12.9964L3.39116 14.2588C4.80053 15.6682 6.65195 16.3739 8.50337 16.3739C9.2729 16.3739 10.0414 16.2496 10.7785 16.0064C10.9179 16.5069 10.9925 17.0343 10.9925 17.5779C10.9925 18.0762 10.9298 18.5593 10.812 19.0208C10.1311 18.8111 9.41557 18.7031 8.68278 18.7031C6.75246 18.7031 4.93455 19.4542 3.57057 20.8204L2.21308 22.1779C1.73536 20.6853 1.47381 19.0976 1.47381 17.4461V17.4482L1.47489 17.4504ZM4.53033 21.7801C5.64032 20.6701 7.1167 20.0595 8.68711 20.0595C9.25129 20.0595 9.80358 20.1405 10.331 20.2918C9.34964 22.1703 7.38149 23.4586 5.11937 23.4586H2.85508L4.53249 21.7812H4.53033V21.7801ZM9.88896 29.3241V31.2361C7.11237 29.8019 4.82106 27.5559 3.33496 24.8107H5.11829C7.94135 24.8107 10.3883 23.1852 11.5793 20.8193C12.0344 21.0787 12.4613 21.3986 12.8417 21.7801C13.1962 22.1346 13.4935 22.5215 13.7388 22.9323C11.4496 24.1482 9.8868 26.5562 9.8868 29.3209V29.3231L9.88896 29.3241ZM11.2421 31.6965V29.3241C11.2421 27.1074 12.4753 25.1749 14.2911 24.173C14.9244 26.1963 14.4424 28.4941 12.8428 30.0948L11.2421 31.6954V31.6965ZM16.9888 32.9665C15.4443 32.9665 13.9506 32.7362 12.5391 32.3126L13.7993 31.0523C15.7956 29.0561 16.377 26.1768 15.547 23.6618C16.0474 23.5224 16.5748 23.4478 17.1185 23.4478C17.6189 23.4478 18.1042 23.5105 18.5689 23.6283C17.8113 26.1066 18.4068 28.9145 20.3641 30.8697L21.7195 32.225C20.2269 32.7027 18.6392 32.9643 16.9877 32.9643V32.9665H16.9888ZM22.9991 31.5906L21.3217 29.9132C19.7546 28.346 19.2606 26.1066 19.8356 24.1147C21.7141 25.0982 22.997 27.0642 22.997 29.3263V31.5906H22.9991ZM24.3523 31.1031V29.3241C24.3523 26.5032 22.7268 24.0541 20.3631 22.8631C20.6181 22.4102 20.938 21.9833 21.3217 21.6007C21.6762 21.2462 22.0632 20.949 22.4739 20.7036C23.6898 22.9928 26.0978 24.5556 28.8625 24.5556H30.7701C29.3359 27.3301 27.0922 29.6181 24.3491 31.1042H24.3512L24.3523 31.1031ZM28.8647 23.2014C26.6479 23.2014 24.7155 21.9682 23.7136 20.1524C25.7368 19.5191 28.0346 20.0011 29.6331 21.6007L31.2338 23.2014H28.8636H28.8647ZM31.8488 21.9001L30.5907 20.642C28.5945 18.6458 25.7152 18.0643 23.2002 18.8944C23.0607 18.3939 22.9862 17.8665 22.9862 17.3229C22.9862 16.8225 23.0489 16.3372 23.1667 15.8724C23.8595 16.0843 24.576 16.1923 25.2959 16.1923C27.1473 16.1923 28.9987 15.4866 30.4081 14.0772L31.7612 12.724C32.239 14.2145 32.5005 15.8022 32.5005 17.4504C32.5005 18.9949 32.2703 20.4886 31.8466 21.8979L31.8488 21.9001Z" fill="#333333"/>
</g>
<g id="Group_5">
<path id="Vector_8" d="M40.3232 0.585388H50.6568V2.76213H42.7637V8.0008H50.2018V10.13H42.7637V15.3914H50.8233V17.5681H40.3232V0.585388Z" fill="#333333"/>
<path id="Vector_9" d="M64.6252 5.51117L59.6027 17.5654H57.5935L52.5461 5.51117H55.0342L58.6224 14.577L62.2583 5.51117H64.6263H64.6252Z" fill="#333333"/>
<path id="Vector_10" d="M76.7999 12.1852H67.7114C67.9254 14.4582 69.4093 15.8211 71.9222 15.8211C73.4289 15.8211 74.768 15.4849 75.7742 14.9597L76.3243 16.85C75.1517 17.4001 73.8612 17.7838 71.8044 17.7838C67.8108 17.7838 65.3704 15.0818 65.3704 11.5659C65.3704 7.8112 67.8822 5.27563 71.2294 5.27563C74.5767 5.27563 76.802 7.71609 76.802 11.8761V12.1874L76.7999 12.1852ZM74.4318 10.4873C74.2178 8.35809 72.9252 7.13786 71.2272 7.13786C69.5293 7.13786 67.9978 8.38079 67.7114 10.4873H74.4318Z" fill="#333333"/>
<path id="Vector_11" d="M99.4979 5.5102L94.5705 17.8281C93.2562 21.2965 91.6998 22.7307 89.2118 22.7307H88.9978L88.5428 20.6491H88.6628C90.217 20.6491 91.4145 19.8352 92.4175 17.3245L92.5126 17.0608L87.3928 5.50696H89.8808L93.708 14.4755L97.1039 5.50696H99.4946L99.4989 5.50912L99.4979 5.5102Z" fill="#333333"/>
<path id="Vector_12" d="M100.24 11.539C100.24 7.90319 102.92 5.27142 106.675 5.27142C110.429 5.27142 113.084 7.90319 113.084 11.539C113.084 15.1748 110.452 17.8066 106.675 17.8066C102.897 17.8066 100.24 15.1997 100.24 11.539ZM110.741 11.539C110.741 9.07586 109.067 7.37791 106.675 7.37791C104.282 7.37791 102.586 9.07586 102.586 11.539C102.586 14.0022 104.309 15.7001 106.675 15.7001C109.04 15.7001 110.741 13.9773 110.741 11.539Z" fill="#333333"/>
<path id="Vector_13" d="M126.66 10.3444V17.5674H124.412V10.6557C124.412 8.50164 123.408 7.33113 121.638 7.33113C120.226 7.33113 118.911 8.12011 118.027 9.14904V17.5674H115.779V5.51321H118.027V7.11713C119.054 6.04173 120.37 5.27435 122.237 5.27435C125.061 5.27435 126.662 7.13982 126.662 10.3444H126.66Z" fill="#333333"/>
<path id="Vector_14" d="M140.941 12.1852H131.853C132.067 14.4582 133.551 15.8211 136.064 15.8211C137.57 15.8211 138.91 15.4849 139.916 14.9597L140.466 16.85C139.293 17.4001 138.003 17.7838 135.944 17.7838C131.95 17.7838 129.51 15.0818 129.51 11.5659C129.51 7.8112 132.022 5.27563 135.369 5.27563C138.716 5.27563 140.941 7.71609 140.941 11.8761V12.1852ZM138.573 10.4873C138.359 8.35809 137.067 7.13786 135.369 7.13786C133.671 7.13786 132.139 8.38079 131.853 10.4873H138.573Z" fill="#333333"/>
<path id="Vector_15" d="M86.6546 7.54506H85.9369C83.7829 7.54506 82.7075 8.38161 81.9898 9.38784V17.5674H79.7666V5.51315H81.9898V7.47481C82.754 6.06328 84.0217 5.46559 85.5781 5.46559L85.7316 5.45911L86.6535 7.54506H86.6546Z" fill="#333333"/>
</g>
</g>
<defs>
<clipPath id="clip0_511_626">
<rect width="250.884" height="33.733" fill="white" transform="translate(0.115234 0.586182)"/>
</clipPath>
</defs>
</svg>
