<svg width="44" height="44" viewBox="0 0 44 44" fill="none" xmlns="http://www.w3.org/2000/svg">
<g id="icon mayor club">
<rect id="Rectangle 150" x="0.892334" y="-0.00439453" width="42.5751" height="44.0045" fill="#0163E2"/>
<path id="Vector" d="M16.1181 15.7328L14.0976 13.6445L5.94336 22.0725V26.2492L16.1181 15.7328Z" fill="#FFCD1D"/>
<path id="Vector_2" d="M20.2313 19.983L18.2108 17.8946L5.94336 30.4247V34.6014L20.2313 19.983Z" fill="#FFCD1D"/>
<path id="Vector_3" d="M5.94336 17.821L12.0771 11.556L10.0565 9.46762L5.94336 13.6443V17.821Z" fill="#FFCD1D"/>
<path id="Vector_4" d="M8.03603 7.37857L5.94336 5.21564V9.39234L8.03603 7.37857Z" fill="#FFCD1D"/>
<g id="Group 257">
<path id="Vector_5" d="M38.4154 9.54239V5.36569L6.08716 38.7793H10.1282L38.4154 9.54239Z" fill="white"/>
<path id="Vector_6" d="M38.4153 34.7515V30.5748L30.4775 38.779H34.5186L38.4153 34.7515Z" fill="white"/>
<path id="Vector_7" d="M38.4153 17.9694V13.7927L14.1692 38.7783H18.2102L38.4153 17.9694Z" fill="white"/>
<path id="Vector_8" d="M38.4159 26.3982V22.2215L22.324 38.7792H26.365L38.4159 26.3982Z" fill="white"/>
</g>
<path id="Vector_9" d="M43.4674 44.0002H0.892334V-0.00439453H43.4674V44.0002ZM2.98501 41.8372H41.4469V2.15854H2.98501V41.8372Z" fill="#0163E2"/>
</g>
</svg>
