<svg width="163" height="20" viewBox="0 0 163 20" fill="none" xmlns="http://www.w3.org/2000/svg">
<path d="M4.46657 8.132H13.2286V11.408H4.46657V8.132ZM4.77857 15.62H14.6846V19H0.59257V0.799999H14.3466V4.18H4.77857V15.62ZM26.7459 19.312C25.3419 19.312 24.0333 19.0867 22.8199 18.636C21.6239 18.168 20.5839 17.5093 19.6999 16.66C18.8159 15.8107 18.1226 14.814 17.6199 13.67C17.1346 12.526 16.8919 11.2693 16.8919 9.9C16.8919 8.53067 17.1346 7.274 17.6199 6.13C18.1226 4.986 18.8159 3.98933 19.6999 3.14C20.6013 2.29067 21.6499 1.64067 22.8459 1.19C24.0419 0.721999 25.3506 0.488 26.7719 0.488C28.3493 0.488 29.7706 0.765333 31.0359 1.32C32.3186 1.85733 33.3933 2.65467 34.2599 3.712L31.5559 6.208C30.9319 5.49733 30.2386 4.96867 29.4759 4.622C28.7133 4.258 27.8813 4.076 26.9799 4.076C26.1306 4.076 25.3506 4.21467 24.6399 4.492C23.9293 4.76933 23.3139 5.168 22.7939 5.688C22.2739 6.208 21.8666 6.82333 21.5719 7.534C21.2946 8.24467 21.1559 9.03333 21.1559 9.9C21.1559 10.7667 21.2946 11.5553 21.5719 12.266C21.8666 12.9767 22.2739 13.592 22.7939 14.112C23.3139 14.632 23.9293 15.0307 24.6399 15.308C25.3506 15.5853 26.1306 15.724 26.9799 15.724C27.8813 15.724 28.7133 15.5507 29.4759 15.204C30.2386 14.84 30.9319 14.294 31.5559 13.566L34.2599 16.062C33.3933 17.1193 32.3186 17.9253 31.0359 18.48C29.7706 19.0347 28.3406 19.312 26.7459 19.312ZM45.5634 19.312C44.1248 19.312 42.7901 19.078 41.5594 18.61C40.3461 18.142 39.2888 17.4833 38.3874 16.634C37.5034 15.7847 36.8101 14.788 36.3074 13.644C35.8221 12.5 35.5794 11.252 35.5794 9.9C35.5794 8.548 35.8221 7.3 36.3074 6.156C36.8101 5.012 37.5121 4.01533 38.4134 3.166C39.3148 2.31667 40.3721 1.658 41.5854 1.19C42.7988 0.721999 44.1161 0.488 45.5374 0.488C46.9761 0.488 48.2934 0.721999 49.4894 1.19C50.7028 1.658 51.7514 2.31667 52.6354 3.166C53.5368 4.01533 54.2388 5.012 54.7414 6.156C55.2441 7.28267 55.4954 8.53067 55.4954 9.9C55.4954 11.252 55.2441 12.5087 54.7414 13.67C54.2388 14.814 53.5368 15.8107 52.6354 16.66C51.7514 17.492 50.7028 18.142 49.4894 18.61C48.2934 19.078 46.9848 19.312 45.5634 19.312ZM45.5374 15.724C46.3521 15.724 47.0974 15.5853 47.7734 15.308C48.4668 15.0307 49.0734 14.632 49.5934 14.112C50.1134 13.592 50.5121 12.9767 50.7894 12.266C51.0841 11.5553 51.2314 10.7667 51.2314 9.9C51.2314 9.03333 51.0841 8.24467 50.7894 7.534C50.5121 6.82333 50.1134 6.208 49.5934 5.688C49.0908 5.168 48.4928 4.76933 47.7994 4.492C47.1061 4.21467 46.3521 4.076 45.5374 4.076C44.7228 4.076 43.9688 4.21467 43.2754 4.492C42.5994 4.76933 42.0014 5.168 41.4814 5.688C40.9614 6.208 40.5541 6.82333 40.2594 7.534C39.9821 8.24467 39.8434 9.03333 39.8434 9.9C39.8434 10.7493 39.9821 11.538 40.2594 12.266C40.5541 12.9767 40.9528 13.592 41.4554 14.112C41.9754 14.632 42.5821 15.0307 43.2754 15.308C43.9688 15.5853 44.7228 15.724 45.5374 15.724ZM64.6409 19.312C63.1849 19.312 61.7896 19.1213 60.4549 18.74C59.1203 18.3413 58.0456 17.83 57.2309 17.206L58.6609 14.034C59.4409 14.5887 60.3596 15.048 61.4169 15.412C62.4916 15.7587 63.5749 15.932 64.6669 15.932C65.4989 15.932 66.1663 15.854 66.6689 15.698C67.1889 15.5247 67.5703 15.2907 67.8129 14.996C68.0556 14.7013 68.1769 14.3633 68.1769 13.982C68.1769 13.4967 67.9863 13.1153 67.6049 12.838C67.2236 12.5433 66.7209 12.3093 66.0969 12.136C65.4729 11.9453 64.7796 11.772 64.0169 11.616C63.2716 11.4427 62.5176 11.2347 61.7549 10.992C61.0096 10.7493 60.3249 10.4373 59.7009 10.056C59.0769 9.67467 58.5656 9.172 58.1669 8.548C57.7856 7.924 57.5949 7.12667 57.5949 6.156C57.5949 5.116 57.8723 4.17133 58.4269 3.322C58.9989 2.45533 59.8483 1.77067 60.9749 1.268C62.1189 0.747999 63.5489 0.488 65.2649 0.488C66.4089 0.488 67.5356 0.626666 68.6449 0.903999C69.7543 1.164 70.7336 1.56267 71.5829 2.1L70.2829 5.298C69.4336 4.81267 68.5843 4.45733 67.7349 4.232C66.8856 3.98933 66.0536 3.868 65.2389 3.868C64.4243 3.868 63.7569 3.96333 63.2369 4.154C62.7169 4.34467 62.3443 4.596 62.1189 4.908C61.8936 5.20267 61.7809 5.54933 61.7809 5.948C61.7809 6.416 61.9716 6.79733 62.3529 7.092C62.7343 7.36933 63.2369 7.59467 63.8609 7.768C64.4849 7.94133 65.1696 8.11467 65.9149 8.288C66.6776 8.46133 67.4316 8.66067 68.1769 8.886C68.9396 9.11133 69.6329 9.41467 70.2569 9.796C70.8809 10.1773 71.3836 10.68 71.7649 11.304C72.1636 11.928 72.3629 12.7167 72.3629 13.67C72.3629 14.6927 72.0769 15.6287 71.5049 16.478C70.9329 17.3273 70.0749 18.012 68.9309 18.532C67.8043 19.052 66.3743 19.312 64.6409 19.312ZM79.3841 19V11.564L80.3461 14.112L72.3381 0.799999H76.8101L82.9461 11.018H80.3721L86.5341 0.799999H90.6681L82.6601 14.112L83.5961 11.564V19H79.3841ZM98.0296 19.312C96.5736 19.312 95.1783 19.1213 93.8436 18.74C92.5089 18.3413 91.4343 17.83 90.6196 17.206L92.0496 14.034C92.8296 14.5887 93.7483 15.048 94.8056 15.412C95.8803 15.7587 96.9636 15.932 98.0556 15.932C98.8876 15.932 99.5549 15.854 100.058 15.698C100.578 15.5247 100.959 15.2907 101.202 14.996C101.444 14.7013 101.566 14.3633 101.566 13.982C101.566 13.4967 101.375 13.1153 100.994 12.838C100.612 12.5433 100.11 12.3093 99.4856 12.136C98.8616 11.9453 98.1683 11.772 97.4056 11.616C96.6603 11.4427 95.9063 11.2347 95.1436 10.992C94.3983 10.7493 93.7136 10.4373 93.0896 10.056C92.4656 9.67467 91.9543 9.172 91.5556 8.548C91.1743 7.924 90.9836 7.12667 90.9836 6.156C90.9836 5.116 91.2609 4.17133 91.8156 3.322C92.3876 2.45533 93.2369 1.77067 94.3636 1.268C95.5076 0.747999 96.9376 0.488 98.6536 0.488C99.7976 0.488 100.924 0.626666 102.034 0.903999C103.143 1.164 104.122 1.56267 104.972 2.1L103.672 5.298C102.822 4.81267 101.973 4.45733 101.124 4.232C100.274 3.98933 99.4423 3.868 98.6276 3.868C97.8129 3.868 97.1456 3.96333 96.6256 4.154C96.1056 4.34467 95.7329 4.596 95.5076 4.908C95.2823 5.20267 95.1696 5.54933 95.1696 5.948C95.1696 6.416 95.3603 6.79733 95.7416 7.092C96.1229 7.36933 96.6256 7.59467 97.2496 7.768C97.8736 7.94133 98.5583 8.11467 99.3036 8.288C100.066 8.46133 100.82 8.66067 101.566 8.886C102.328 9.11133 103.022 9.41467 103.646 9.796C104.27 10.1773 104.772 10.68 105.154 11.304C105.552 11.928 105.752 12.7167 105.752 13.67C105.752 14.6927 105.466 15.6287 104.894 16.478C104.322 17.3273 103.464 18.012 102.32 18.532C101.193 19.052 99.7629 19.312 98.0296 19.312ZM112.146 19V4.232H106.322V0.799999H122.182V4.232H116.358V19H112.146ZM128.322 8.132H137.084V11.408H128.322V8.132ZM128.634 15.62H138.54V19H124.448V0.799999H138.202V4.18H128.634V15.62ZM141.891 19V0.799999H145.375L153.123 13.644H151.277L158.895 0.799999H162.353L162.405 19H158.453L158.427 6.858H159.155L153.071 17.076H151.173L144.959 6.858H145.843V19H141.891Z" fill="#012C65"/>
</svg>
