<svg width="36" height="13" viewBox="0 0 36 13" fill="none" xmlns="http://www.w3.org/2000/svg">
<path id="Vector" d="M9.72274 12.5777H6.49857L3.19543 7.2169C3.13218 7.11372 3.0321 6.88714 2.8952 6.53714H2.8556V12.5777H0.303223V0.238403H2.8556V6.07236H2.8952C2.95834 5.9119 3.06372 5.68233 3.21124 5.38419L6.34054 0.238403H9.38292L5.43177 6.12411L9.72274 12.5777ZM19.3557 0.238403L15.6653 8.18926V12.5777H13.1128V8.24079L9.51728 0.238403H12.4333L14.2587 4.84189C14.2903 4.92815 14.3772 5.26355 14.5194 5.84876H14.5511C14.6195 5.43562 14.7012 5.1115 14.796 4.87639L16.653 0.238403H19.3557ZM24.1443 0.238403V2.38959H23.1966V10.4265H24.1443V12.5777H19.6954V10.4265H20.6437V2.38959H19.6954V0.238403H24.1443ZM35.2159 0.238403L31.3123 12.5777H28.4195L24.5634 0.238403H27.3136L29.6757 8.826C29.8029 9.29056 29.8792 9.70072 29.9046 10.0565H29.9522C29.9898 9.67208 30.0716 9.25042 30.1977 8.7915L32.5442 0.238403H35.2159Z" fill="#FF9D3B"/>
</svg>
