<svg width="754" height="813" viewBox="0 0 754 813" fill="none" xmlns="http://www.w3.org/2000/svg">
<g filter="url(#filter0_b_511_131)">
<path d="M444.416 399.809L440.68 404.028L442.819 405.938L445.935 406.504L443.935 409.101L444.001 414.267L438.171 415.612L434.669 415.311L432.279 416.6L431.858 413.72L429.016 410.858L428.025 411.845L425.188 408.981L422.372 408.697L420.046 412.558L417.345 415.157L418.055 416.456L416.361 418.682L413.225 417.434L412.228 418.418L409.121 418.436L404.908 416.546L400.403 416.933L398.339 418.194L394.899 418.557L395.36 422.711L392.288 424.993L386.5 428.231L382.965 425.999L380.537 426.336L377.496 428.255L375.041 426.354L370.854 426.046L368.824 427.335L366.382 426.392L360.497 426.437L358.467 428.335L357.856 431.538L355.481 433.481L356.964 436.673L350.375 436.049L349.022 438.948L344.582 439.928L343.56 441.202L341.116 440.286L339.117 442.527L333.547 440.994L335.891 438.757L334.718 433.013L332.916 430.471L329.462 427.97L329.709 425.429L325.919 424.195L325.876 421.961L324.424 420.075L324.721 417.842L321.622 416.301L323.232 413.066L321.45 410.26L321.363 407.678L324.665 403.138L324.577 400.252L325.68 403.141L332.445 400.789L333.991 395.325L337.799 395.585L338.524 397.158L341.222 395.231L341.999 398.071L347.937 398.972L352.639 393.838L355.781 395.439L358.516 393.5L360.25 393.488L362.048 395.398L364.45 394.419L367.249 394.745L370.324 393.756L370.582 390.869L373.705 390.226L373.639 388.654L376.029 387.362L378.305 380.961L380.928 376.129L381.176 373.246L380.419 370.376L380.668 367.539L384.414 365.267L387.176 364.619L384.239 359.821L388.428 359.153L389.827 360.135L389.2 362.672L389.623 365.238L391.084 366.829L394.181 366.171L396.684 367.09L400.51 367.068L403.515 361.913L407.983 360.913L407.199 357.747L407.458 354.214L409.519 352.605L410.793 347.79L412.893 348.094L414.955 346.788L418.187 350.592L420.686 351.494L421.864 356.607L427.191 361.317L427.303 365.456L425.208 365.812L427.724 368.629L432.638 371.428L433.084 375.257L436.229 376.177L439.089 378.719L440.531 381.91L440.59 383.831L437.533 387.716L438.321 391.541L440.471 394.061L437 394.113L430.334 391.97L429.344 394.53L431.48 396.75L437.452 399.567L440.252 399.534L441.306 400.817L444.416 399.809Z" fill="#CDD5E0" fill-opacity="0.66" stroke="white" style="fill:#CDD5E0;fill:color(display-p3 0.8039 0.8353 0.8784);fill-opacity:0.66;stroke:white;stroke:white;stroke-opacity:1;" stroke-width="1.76785"/>
<path d="M459.043 230.558L457.832 235.074L455.62 238.765L457.06 241.559L460.514 245.059L462.557 245.332L462.642 247.527L460.311 248.212L458.566 247.281L456.6 249.115L459.812 250.903L458.706 253.485L454.763 253.272L450.526 256.515L450.58 259.405L448.85 261.66L451.417 266.07L450.044 268.014L453.045 272.671L452.122 276.851L450.736 277.197L450.089 280.072L450.583 283.561L448.821 283.919L448.662 290.244L447.673 292.829L445.245 294.462L446.328 296.032L445.313 297.926L449.618 300.395L450.012 302.29L449.008 304.533L454.663 306.305L455.084 308.851L453.352 310.469L453.814 315.532L455.567 317.082L452.827 319.689L453.555 321.577L451.512 322.598L451.251 327.386L450.26 330.242L448.916 332.502L444.738 335.15L443.065 337.722L439.596 339.083L429.453 339.572L428.339 337.034L424.822 336.773L422.712 335.866L420.021 340.061L416.184 340.408L413.687 339.157L411.495 336.637L411.106 334.123L412.378 329.663L409.208 329.684L407.734 327.15L403.434 324.973L401.712 326.265L401.81 328.826L398.305 328.54L395.561 331.107L392.042 330.163L389.283 332.117L386.077 329.903L384.341 330.883L381.867 329.916L379.645 326.425L380.148 321.685L376.848 318.208L373.682 317.549L366 317.622L362.073 315.701L362.936 311.921L359.722 310.036L358.134 304.932L355.965 303.385L353.243 303.4L352.485 302.104L353.405 298.937L351.934 295.437L353.565 294.174L354.104 290.319L356.064 289.745L356.657 287.535L358.612 286.658L357.029 280.442L353.776 274.108L355.16 272.157L353.469 269.23L355.184 268.573L357.255 265.885L359.9 259.741L360.389 257.194L364.077 255.528L363.829 253.633L365.844 251.548L368.753 251.349L369.075 246.78L372.951 246.741L374.924 245.815L379.478 248.26L382.07 245.513L387.019 243.378L388.74 244.3L395.753 244.49L400.384 245.399L402.215 244.719L405.563 245.947L404.648 248.506L408.243 248.177L410.112 249.129L415.1 247.169L418.329 245.244L420.154 242.661L419.238 237.517L421.652 236.513L420.157 232.118L426.454 232.092L429.764 233.684L432.967 236.223L434.411 235.28L439.234 234.971L440.342 236.531L442.789 235.34L446.225 232.138L449.963 231.203L452.293 229.494L456.023 230.962L459.043 230.558Z" fill="#CDD5E0" fill-opacity="0.66" stroke="white" style="fill:#CDD5E0;fill:color(display-p3 0.8039 0.8353 0.8784);fill-opacity:0.66;stroke:white;stroke:white;stroke-opacity:1;" stroke-width="1.76785"/>
<path d="M165.584 427.334L168.709 428.26L171.797 427.909L176.556 432.671L178.532 431.04L185.591 432.549L185.348 434.821L186.453 436.4L190.621 436.032L193.49 437.586L196.572 436.249L199.38 436.875L200.956 440.398L203.427 441.009L204.759 439.386L207.548 439.304L207.386 437.016L208.705 435.655L212.139 435.195L214.59 436.325L215.865 434.697L222.362 436.033L224.367 434.379L227.112 435.554L227.386 432.973L230.53 433.849L232.921 432.158L236.077 434.345L236.439 438.873L238.811 441.434L236.062 443.603L232.816 444.222L230.667 442.453L229.057 445.57L223.872 445.469L221.716 444.002L218.118 446.266L215.193 445.913L213.487 442.831L207.465 444.306L211.321 447.417L210.888 449.994L205.953 446.847L205.238 448.975L201.875 452.376L199 454.429L197.32 453.447L192.23 455.505L190.693 458.262L184.921 465.74L177.512 466.151L176.148 465.788L170.657 467.321L163.702 467.373L150.477 468.442L147.928 469.069L146.736 472.006L143.136 476.455L138.908 477.787L135.991 477.728L139.073 472.994L139.244 471.681L136.91 469.229L135.591 466.344L135.41 463.429L136.943 459.811L139.269 457.816L139.148 455.566L142.234 454.885L145.401 449.017L147.792 448.341L153.686 442.513L156.726 441.468L160.84 441.436L165.384 442.648L163.806 438.845L164.336 435.97L163.656 429.882L165.584 427.334Z" fill="#CDD5E0" fill-opacity="0.66" stroke="white" style="fill:#CDD5E0;fill:color(display-p3 0.8039 0.8353 0.8784);fill-opacity:0.66;stroke:white;stroke:white;stroke-opacity:1;" stroke-width="1.76785"/>
<path d="M497.353 573.851L497.768 571.796L503.493 572.665L508.208 572.507L511.962 568.267L515.784 570.664L517.238 567.276L519.711 569.022L519.646 571.728L515.066 571.539L513.649 572.666L513.557 574.929L516.227 577.512L519.425 576.39L521.736 572.871L521.135 569.089L524.297 568.408L528.806 570.184L531.451 579.672L535.007 586.945L537.973 591.675L545.022 599.654L548.391 603.872L553.859 608.729L556.888 610.428L559.952 610.125L564.4 608.142L566.154 608.263L567.373 604.817L570.971 601.721L573.576 604.721L577.41 606.046L580.333 603.692L579.968 602.071L582.318 600.417L586.706 599.344L591.468 599.265L594.529 600.49L596.887 599.76L598.591 601.337L601.281 600.226L603.314 602.757L602.105 605.193L599.721 605.617L594.938 609.885L595.701 611.214L594.983 615.617L597.277 621.071L594.194 622.693L590.736 622.691L588.32 624.311L581.307 623.633L577.845 625.887L573.932 626.832L572.717 624.814L568.546 621.678L562.637 619.482L559.825 619.818L556.041 621.982L553.689 625.754L554.939 627.687L551.686 629.418L548.411 629.903L548.495 632.255L544.551 633.75L542.172 639.252L539.378 637.393L536.348 636.833L533.992 638.195L527.243 638.698L517.128 644.366L514.774 647.094L513.242 651.875L509.271 656.805L506.183 657.425L504.227 661.243L496.795 663.725L494.999 663.084L490.26 664.201L490.543 663.523L495.912 661.358L492.99 656.224L490.407 657.791L486.943 656.899L484.92 653.106L488.311 651.068L489.018 648.107L486.983 646.495L482.649 646.877L482.298 644.579L484.327 642.283L481.34 641.281L480.371 639.006L482.037 635.436L481.392 629.597L479.1 625.017L476.811 621.724L473.7 619.701L468.544 622.051L464.937 620.393L457.913 614.756L457.838 612.54L452.064 611.559L445.97 611.777L441.649 614.777L434.935 613.087L434.206 610.799L436.925 607.227L441.089 604.326L446.328 601.656L448.78 601.587L451.793 596.713L456.592 593.645L461.761 591.179L462 589.266L465.532 589.684L470.685 587.075L472.059 585.699L477.733 583.639L479.837 581.525L482.657 580.802L484.849 578.46L480.408 578.005L479.54 575.335L479.108 569.594L480.845 564.882L484.584 567.133L487.489 566.314L490.06 567.189L493.772 569.788L494.561 571.572L496.66 571.974L497.353 573.851Z" fill="#CDD5E0" fill-opacity="0.66" stroke="white" style="fill:#CDD5E0;fill:color(display-p3 0.8039 0.8353 0.8784);fill-opacity:0.66;stroke:white;stroke:white;stroke-opacity:1;" stroke-width="1.76785"/>
<path d="M528.141 401.064L533.846 400.901L534.249 402.852L543.754 407.777L546.15 409.661L549.227 409.928L553.986 409.131L558.08 411.613L558.722 410.259L564.803 408.142L566.611 415.58L570.366 417.106L571.425 418.357L571.426 421.958L576.544 424.713L575.92 427.696L580.663 429.812L583.975 424.148L589.474 427.214L592.474 425.475L594.179 425.404L597.593 428.556L599.986 429.139L597.984 433.103L598.69 436.617L597.689 437.654L598.054 442.514L600.087 442.11L601.802 443.356L603.2 448.146L600.823 449.235L602.588 454.972L601.211 456.961L597.818 456.445L593.079 454.342L590.743 455.423L591.483 462.202L593.495 464.052L590.14 465.464L591.854 468.657L587.158 470.773L583.787 469.977L582.1 471.32L577.738 471.199L577.035 469.612L574.337 470.661L573.269 465.835L572.285 465.895L570.202 459.107L568.501 459.475L567.123 457.268L561.743 459.393L561.37 457.434L558.669 457.547L557.265 455.603L551.246 459.379L544.1 457.66L542.026 456.716L538.684 456.805L532.272 458.283L530.249 459.97L527.199 460.035L524.175 462.384L524.928 466.309L522.592 470.605L525.695 474.109L525.396 477.736L527.75 477.355L527.743 479.955L526.105 482.636L527.484 485.213L527.199 488.18L528.234 490.775L525.837 491.466L521.77 491.575L517.351 489.668L513.979 489.737L503.157 492.82L497.389 494.829L491.897 496.464L488.462 492.898L483.998 494.174L477.828 495.11L475.429 493.479L475.04 488.646L471.593 489.253L471.283 491.511L469.558 493.113L466.79 493.428L465.77 495.358L460.91 492.742L460.208 491.134L455.71 490.131L455.727 489.162L451.581 488.187L450.808 482.75L452.149 481.433L454.573 481.447L454.163 476.618L455.134 471.792L452.362 471.481L452.626 467.602L458.095 463.386L462.897 461.471L463.883 458.844L469.031 457.218L473.485 454.291L471.384 452.037L469.923 448.486L470.57 444.95L470.11 436.888L477.308 434.871L481.068 432.535L480.995 429.642L477.881 427.435L475.786 427.425L474.053 425.515L476.757 422.565L481.6 423.171L483.017 424.432L484.991 420.54L485.627 417.271L488.078 418.839L490.473 419.137L494.305 421.04L495.381 423.275L498.135 423.86L500.548 425.423L502.596 423.448L501.159 420.879L502.865 418.918L501.103 416.672L503.071 410.142L505.077 407.512L510.888 407.379L511.513 404.415L516.303 403.357L517.632 401.015L520.319 399.659L526.106 400.16L528.141 401.064Z" fill="#CDD5E0" fill-opacity="0.66" stroke="white" style="fill:#CDD5E0;fill:color(display-p3 0.8039 0.8353 0.8784);fill-opacity:0.66;stroke:white;stroke:white;stroke-opacity:1;" stroke-width="1.76785"/>
<path d="M687.831 459.419L682.743 459.571L679.285 460.676L677.282 470.176L673.718 469.782L673.402 471.665L671.318 473.261L665.501 473.76L666.039 475.261L662.283 475.491L660.165 478.409L659.58 480.712L660.766 484.415L660.601 488.585L658.858 489.173L658.04 492.248L662.069 492.62L662.655 495.182L659.307 496.833L659.364 502.404L655.863 505.791L654.021 503.684L651.339 505.053L646.518 504.333L638.676 506.896L633.829 506.428L631.06 508.054L628.315 513.659L624.151 519.235L623.182 516.562L620.539 515.516L617.453 517.73L614.109 519.253L612.753 517.313L613.428 515.673L616.792 513.796L615.783 511.169L611.028 508.632L610.702 506.356L605.569 503.31L608.961 501.925L607.221 496.168L611.652 496.697L614.388 494.69L614.065 493.122L617.097 491.755L619.152 487.542L615.398 487.902L612.291 486.358L609.586 483.547L606.832 482.637L605.146 483.991L601.734 480.254L597.998 478.743L595.271 472.707L591.865 472.184L591.856 468.657L590.141 465.465L593.497 464.052L591.485 462.203L590.745 455.423L593.081 454.342L597.82 456.445L601.212 456.962L602.59 454.972L600.825 449.236L603.202 448.146L601.804 443.356L600.088 442.11L598.056 442.514L597.691 437.654L598.692 436.618L597.986 433.103L599.988 429.139L597.595 428.556L594.181 425.404L592.797 421.894L593.821 421.21L591.707 417.047L600.584 415.166L603.283 416.031L606.678 412.057L609.11 412.015L612.156 408.061L614.866 406.063L614.517 404.156L617.248 402.462L617.621 399.888L622.075 398.545L621.382 396.622L624.448 394.985L623.381 392.083L621.675 390.808L623.74 388.853L626.834 388.791L631.951 389.71L634.683 389.363L635.045 387.404L637.787 389.95L636.778 392.268L638.848 393.2L643.655 393.778L642.954 397.348L644.353 399.957L641.605 403.519L649.484 403.446L649.858 408.646L652.607 409.913L651.575 412.505L653.664 415.058L653.677 417.345L651.286 418.996L654.743 427.379L654.06 429.022L655.774 430.596L659.857 431.221L660.235 433.172L662.64 434.73L660.239 436.388L660.214 439.299L665.69 438.92L667.718 442.14L667.758 444.121L670.491 445.383L676.348 446.28L677.722 451.763L686.258 451.613L686.565 454.19L687.861 454.779L687.831 459.419Z" fill="#CDD5E0" fill-opacity="0.66" stroke="white" style="fill:#CDD5E0;fill:color(display-p3 0.8039 0.8353 0.8784);fill-opacity:0.66;stroke:white;stroke:white;stroke-opacity:1;" stroke-width="1.76785"/>
<path d="M132.83 380.926L134.425 386.654L136.177 387.228L137.303 389.474L136.033 391.422L136.486 393.634L138.615 396.153L136.697 398.419L138.892 401.554L141.669 402.134L140.718 404.408L138.783 406.062L143.645 408.499L146.057 408.75L146.626 412.592L150.71 412.527L151.332 418.257L152.482 420.461L155.033 416.284L158.455 415.916L158.878 418.128L162.807 420.324L166.062 423.45L165.583 427.334L163.655 429.882L164.335 435.97L163.805 438.845L165.383 442.648L160.839 441.436L156.725 441.468L153.685 442.513L147.792 448.341L145.4 449.016L142.233 454.885L139.147 455.566L139.268 457.816L136.942 459.81L135.409 463.429L135.59 466.344L136.91 469.229L139.243 471.681L139.072 472.994L135.99 477.728L134.495 477.916L132.357 472.871L127.593 470.638L126.402 467.36L122.745 464.124L122.622 460.419L124.572 459.116L124.083 456.581L121.247 453.83L120.446 451.63L121.997 448.724L119.861 447.507L120.096 445.277L115.487 441.281L114.004 439.13L112.094 441.438L108.981 440.29L107.476 437.784L107.87 431.698L102.115 432.936L100.228 435.547L98.1504 434.409L98.6283 430.219L96.2246 430.335L94.0953 427.873L93.6374 425.296L90.5984 425.456L88.0011 421.424L85.5957 420.258L86.4382 417.326L85.985 414.794L86.4274 409.95L88.5738 405.043L91.8237 402.312L91.7886 400.732L94.7699 398.991L96.5047 399.845L100.982 400.297L103.28 398.553L105.407 400.084L106.68 398.407L113.535 398.767L115.556 397.437L119.263 396.991L118.004 391.576L119.653 389.918L120.895 387.012L119.405 383.82L121.039 383.125L120.561 379.948L122.606 379.581L124.218 377.615L127.321 378.836L129.763 380.675L132.83 380.926Z" fill="#CDD5E0" fill-opacity="0.66" stroke="white" style="fill:#CDD5E0;fill:color(display-p3 0.8039 0.8353 0.8784);fill-opacity:0.66;stroke:white;stroke:white;stroke-opacity:1;" stroke-width="1.76785"/>
<path d="M637.96 350.944L639.673 352.948L637.667 355.211L639.056 356.805L636.66 358.486L636.017 360.464L638.742 361.382L639.079 364.639L636.348 366.961L635.658 371.177L633.984 371.88L633.311 375.79L635.023 376.048L635.706 382.219L638.12 383.825L638.114 385.404L635.045 387.403L634.682 389.363L631.95 389.709L626.834 388.791L623.74 388.853L621.675 390.808L623.38 392.082L624.447 394.985L621.381 396.622L622.075 398.544L617.621 399.888L617.248 402.462L614.517 404.156L614.865 406.062L612.155 408.061L609.11 412.015L606.677 412.057L603.282 416.031L600.584 415.166L591.707 417.047L593.82 421.21L592.797 421.894L594.181 425.404L592.476 425.475L589.475 427.214L583.977 424.148L580.664 429.812L575.921 427.696L576.545 424.713L571.427 421.958L571.426 418.357L570.367 417.106L566.612 415.58L564.805 408.142L558.724 410.259L558.082 411.613L553.988 409.131L549.228 409.928L546.152 409.661L543.756 407.777L534.251 402.852L533.848 400.901L528.143 401.064L526.054 396.571L526.309 393.319L527.647 391.325L529.715 392.882L534.413 393.076L537.753 390.709L540.752 386.739L540.037 384.459L537.987 383.213L538.624 380.948L544.067 381.744L544.043 379.777L541.332 379.532L540.93 377.63L544.002 377.505L542.584 373.954L540.511 371.445L535.055 370.952L533.324 368.422L532.212 363.283L530.16 361.731L527.147 361.799L523.396 360.636L519.962 358.188L519.218 355.913L520.539 352.968L522.529 350.95L521.424 346.471L523.03 344.472L526.066 343.403L529.385 340.66L532.45 341.806L534.72 337.502L538.058 336.058L541.172 337.238L542.467 335.859L546.835 333.479L549.536 333.367L552.371 330.894L553.055 328.241L556.946 328.228L558.404 327.314L562.035 326.963L565.112 327.558L566.279 329.358L569.82 331.795L571.698 335.555L574.297 335.302L575.844 333.633L578.25 333.345L582.483 337.907L584.888 338.226L586.642 335.535L592.638 331.724L594.404 331.165L599.236 331.523L603.429 330.394L608.002 328.099L609.455 326.074L612.241 326.434L615.277 325.203L615.189 329.309L618.905 331.646L621.603 331.439L621.182 336.054L622.426 338.36L626.828 342.386L633.61 344.516L634.266 345.994L638.325 349.121L637.96 350.944Z" fill="#CDD5E0" fill-opacity="0.66" stroke="white" style="fill:#CDD5E0;fill:color(display-p3 0.8039 0.8353 0.8784);fill-opacity:0.66;stroke:white;stroke:white;stroke-opacity:1;" stroke-width="1.76785"/>
<path d="M442.814 574.684L445.879 575.352L448.924 573.717L452.05 574.688L452.101 576.281L447.979 575.957L442.814 574.684ZM515.065 571.539L519.644 571.728L519.709 569.022L517.237 567.276L515.783 570.665L511.96 568.267L508.207 572.508L503.492 572.666L497.767 571.796L497.351 573.851L496.658 571.975L494.559 571.572L493.771 569.788L490.058 567.189L487.487 566.315L484.583 567.133L480.843 564.882L479.107 569.594L477.013 569.226L474.728 571.742L471.745 573.352L467.869 570.074L461.022 568.526L459 570.139L455.893 568.199L454.267 571.125L451.59 571.426L445.07 570.461L439.32 571.413L435.975 573.27L432.568 572.913L422.959 569.818L422.577 566.597L418.141 565.188L416.724 562.917L404.859 561.199L406.822 558.245L412.674 558.002L414.024 557.4L415.518 554.23L415.272 552.246L411.763 553.2L410.468 551.545L404.588 549.842L401.713 552.322L396.93 546.832L403.324 546.947L410.608 548.626L414.667 550.004L421.513 549.727L422.494 550.722L426.225 550.77L426.613 546.253L424.61 544.62L419.874 546.492L419.225 544.562L414.179 541.574L417.913 540.039L418.255 537.47L420.979 535.909L422.981 533.657L425.306 532.368L428.048 533.673L429.393 531.433L432.744 531.13L435.479 532.12L435.825 530.169L441.601 530.59L442.643 531.886L447.098 531.629L451.872 530.386L451.517 527.173L451.86 522.351L454.994 523.316L456.67 521.101L450.131 516.841L452.202 512.986L455.602 511.735L457.67 509.51L459.742 508.871L456.607 504.648L457.967 503.679L457.9 498.876L457.148 494.36L455.713 490.132L460.211 491.135L460.913 492.742L465.773 495.358L466.794 493.429L469.562 493.114L471.287 491.511L471.596 489.253L475.043 488.646L475.433 493.479L477.832 495.111L484.001 494.174L488.466 492.899L491.9 496.465L497.392 494.829L501.504 497.742L502.549 501.975L504.296 506.268L511.074 504.203L513.131 507.464L511.454 507.849L512.828 513.393L514.592 515.696L515.308 518.976L516.693 521.606L520.115 523.876L522.87 523.834L523.931 527.805L525.635 527.767L526.395 530.736L524.356 531.099L524.398 534.767L520.35 536.197L519.7 538.218L521.429 539.551L524.494 539.45L524.941 543.144L523.587 545.199L525.338 546.841L528.76 545.746L530.872 549.359L532.9 548.594L537.019 550.024L538.135 554.615L538.608 559.418L539.931 559.527L535.964 562.874L532.022 564.002L529.473 566.563L528.805 570.185L524.295 568.408L521.133 569.089L521.734 572.871L519.424 576.39L516.226 577.512L513.556 574.93L513.648 572.666L515.065 571.539Z" fill="#CDD5E0" fill-opacity="0.66" stroke="white" style="fill:#CDD5E0;fill:color(display-p3 0.8039 0.8353 0.8784);fill-opacity:0.66;stroke:white;stroke:white;stroke-opacity:1;" stroke-width="1.76785"/>
<path d="M229.347 326.873L229.724 328.449L233.341 330.939L231.1 336.139L233.985 338.001L233.994 339.307L236.856 340.47L236.982 342.736L240.563 345.526L243.699 343.818L243.774 346.388L247.063 349.819L244.646 351.199L244.731 353.422L246.899 354.344L244.191 357.635L241.717 357.401L242.507 359.948L241.559 363.238L244.03 363.778L245.275 369.215L248.126 370.067L251.754 372.547L249.78 376.824L251.582 377.693L249.541 380.704L250.377 383.867L248.66 385.227L252.904 397.033L252.712 403.152L250.227 401.96L248.229 404.584L244.679 403.453L242.551 403.489L241.231 405.82L238.78 405.235L238.197 408.809L235.725 408.877L234.072 412.468L235.19 414.074L233.872 416.054L234.986 419.544L234.224 429.21L232.921 432.158L230.53 433.849L227.386 432.973L227.112 435.554L224.367 434.379L222.362 436.032L215.865 434.697L214.59 436.325L212.139 435.195L208.705 435.655L207.386 437.016L207.548 439.303L204.759 439.386L203.427 441.009L200.956 440.398L199.38 436.875L196.572 436.249L192.641 434.395L192.502 431.801L189.183 428.299L189.675 423.493L188.219 422.21L189.893 420.563L188.041 418.345L188.081 411.598L188.719 410.265L187.876 406.115L189.083 401.565L188.602 398.045L190.617 396.065L189.842 393.804L189.917 387.379L189.496 384.783L187.299 383.256L190.022 380.259L189.588 378.014L191.927 376.05L191.856 373.121L190.372 371.886L191.7 369.928L189.102 364.504L190.099 363.539L188.581 360.994L188.492 357.458L190.876 356.416L190.677 350.916L192.777 350.865L191.949 346.695L194.345 346.306L198.061 342.654L202.249 342.543L207.64 336.897L208.34 337.225L213.049 331.596L213.687 329.616L217.819 327.878L221.67 328.736L222.671 327.071L226.842 325.325L229.347 326.873Z" fill="#CDD5E0" fill-opacity="0.66" stroke="white" style="fill:#CDD5E0;fill:color(display-p3 0.8039 0.8353 0.8784);fill-opacity:0.66;stroke:white;stroke:white;stroke-opacity:1;" stroke-width="1.76785"/>
<path d="M354.104 290.319L353.566 294.174L351.934 295.437L353.405 298.937L352.485 302.104L353.243 303.4L355.965 303.385L358.134 304.932L359.722 310.037L362.936 311.921L362.073 315.702L366 317.623L373.682 317.549L376.848 318.209L380.148 321.685L379.645 326.425L381.867 329.916L384.341 330.883L386.077 329.903L389.283 332.117L392.042 330.163L395.561 331.107L398.305 328.54L401.81 328.826L401.712 326.265L403.434 324.974L407.734 327.15L409.208 329.684L412.378 329.663L411.106 334.123L411.495 336.637L413.687 339.157L416.184 340.408L415.534 342.989L414.178 343.932L414.958 346.788L412.896 348.094L410.796 347.79L409.522 352.605L407.461 354.214L407.203 357.747L407.986 360.913L403.518 361.913L400.513 367.068L396.687 367.09L394.184 366.171L391.087 366.829L389.627 365.238L389.203 362.672L389.831 360.135L388.431 359.154L384.242 359.822L387.179 364.619L384.417 365.267L380.672 367.539L380.423 370.376L381.18 373.246L380.931 376.129L378.308 380.961L376.033 387.362L373.642 388.655L373.708 390.227L370.586 390.869L370.327 393.756L367.252 394.745L364.454 394.419L362.052 395.399L360.254 393.488L358.519 393.5L355.785 395.439L352.642 393.839L347.94 398.972L342.003 398.071L341.225 395.231L338.528 397.158L337.803 395.586L333.994 395.325L332.449 400.789L325.683 403.141L324.58 400.252L321.156 399.368L319.674 395.909L317.314 395.331L315.835 392.483L319.465 388.567L318.12 387.95L317.662 383.145L315.852 380.299L317.54 378.692L315.771 377.462L316.027 374.54L314.349 374.618L314.563 370.737L320.562 366.796L322.87 362.881L324.833 360.925L323.075 358.742L323.659 354.867L322.235 353.295L322.109 348.506L323.401 346.247L322.648 344.026L323.607 341.115L321.899 340.848L321.481 338.629L319.028 335.794L316.241 334.217L316.494 331.002L315.078 330.387L316.332 325.919L315.501 322.398L319.237 320.722L319.484 318.162L316.008 315.977L316.833 311.123L314.69 307.601L315.188 302.749L316.465 300.806L312.597 296.974L308.729 294.439L307.956 291.533L308.582 289.201L310.591 289.171L312.198 286.499L310.725 283.506L312.602 281.702L316.141 282.672L316.677 278.352L319.281 279.314L323.996 276.435L326.359 280.979L330.089 280.423L331.908 278.523L334.051 278.87L335.029 277.055L341.735 277.652L343.553 278.339L347.152 281.613L347.677 284.508L349.84 288.047L351.473 287.693L354.104 290.319ZM347.939 326.545L347.005 329.415L344.645 331.03L343.474 335.51L345.181 335.809L347.165 334.195L353.694 341.515L355.187 344.987L358.051 346.928L360.028 344.347L358.596 343.4L357.484 340.536L360.616 340.515L364.671 337.658L362.848 335.108L362.348 331.939L364.419 330.662L364.302 328.1L360.804 328.127L359.163 330.049L354.293 330.383L351.768 326.877L347.939 326.545Z" fill="#CDD5E0" fill-opacity="0.66" stroke="white" style="fill:#CDD5E0;fill:color(display-p3 0.8039 0.8353 0.8784);fill-opacity:0.66;stroke:white;stroke:white;stroke-opacity:1;" stroke-width="1.76785"/>
<path d="M347.939 326.545L351.768 326.877L354.293 330.383L359.163 330.049L360.804 328.126L364.302 328.1L364.419 330.662L362.348 331.938L362.848 335.107L364.671 337.658L360.616 340.515L357.485 340.536L358.596 343.4L360.028 344.347L358.051 346.927L355.187 344.986L353.694 341.514L347.165 334.195L345.181 335.809L343.475 335.509L344.645 331.03L347.005 329.415L347.939 326.545Z" fill="#CDD5E0" fill-opacity="0.66" stroke="white" style="fill:#CDD5E0;fill:color(display-p3 0.8039 0.8353 0.8784);fill-opacity:0.66;stroke:white;stroke:white;stroke-opacity:1;" stroke-width="1.76785"/>
<path d="M485.631 417.271L484.995 420.541L483.021 424.433L481.604 423.172L476.761 422.565L474.057 425.515L475.79 427.425L477.885 427.435L480.999 429.642L481.072 432.535L477.312 434.871L470.115 436.888L470.574 444.95L469.927 448.486L471.388 452.037L473.489 454.291L469.035 457.218L463.887 458.844L462.901 461.471L458.099 463.386L452.63 467.602L451.915 465.337L448.156 466.329L446.11 468.587L444.365 467.933L440.582 468.259L438.55 471.173L439.977 474.389L438.324 476.942L435.547 478.247L433.513 477.948L429.737 478.922L426.616 478.601L424.847 477.015L421.794 477.349L421.132 480.576L417.383 480.877L416.648 479.001L414.199 477.732L410.475 479.038L406.678 479.375L406.938 475.191L407.928 472.973L406.834 470.091L403.035 469.808L402.622 466.255L404.682 465.91L403.936 463.023L401.527 463.065L398.684 460.828L395.273 462.465L392.151 460.888L387.007 461.884L383.567 461.885L383.13 458.683L381.059 458.05L379.607 455.827L374.747 455.53L373.791 457.78L370.712 459.04L366.883 459.074L362.694 457.13L360.992 459.075L358.588 459.398L355.783 458.404L349.894 458.74L346.806 460.025L336.739 459.474L332.519 454.072L330.85 456.31L326.046 455.118L326.255 449.367L326.848 446.515L330.179 443.273L333.552 440.994L339.122 442.526L341.121 440.286L343.565 441.202L344.587 439.928L349.026 438.948L350.38 436.048L356.968 436.673L355.485 433.481L357.86 431.538L358.472 428.335L360.501 426.437L366.387 426.392L368.828 427.335L370.858 426.045L375.045 426.354L377.501 428.255L380.542 426.335L382.969 425.999L386.505 428.231L392.292 424.993L395.365 422.71L394.904 418.556L398.344 418.194L400.407 416.932L404.912 416.545L409.125 418.436L412.232 418.418L413.229 417.434L416.365 418.682L418.06 416.455L417.349 415.157L420.05 412.558L422.376 408.696L425.192 408.98L428.03 411.845L429.021 410.857L431.863 413.72L432.283 416.599L434.673 415.311L438.176 415.612L444.006 414.266L443.94 409.101L445.939 406.504L442.824 405.937L440.684 404.028L444.42 399.809L449.646 400.048L449.651 401.667L455.603 403.189L457.079 408.001L459.51 408.272L458.744 404.444L460.123 403.786L462.248 406.298L461.243 407.952L463.359 410.158L462.354 411.812L463.101 414.985L466.255 416.236L471.45 416.184L474.242 416.784L476.26 413.862L479.043 415.423L481.471 415.418L485.631 417.271Z" fill="#CDD5E0" fill-opacity="0.66" stroke="white" style="fill:#CDD5E0;fill:color(display-p3 0.8039 0.8353 0.8784);fill-opacity:0.66;stroke:white;stroke:white;stroke-opacity:1;" stroke-width="1.76785"/>
<path d="M687.832 459.419L687.862 454.779L686.566 454.19L686.259 451.613L677.723 451.763L676.35 446.28L670.492 445.383L667.759 444.121L667.719 442.14L665.691 438.92L660.215 439.299L660.24 436.388L662.641 434.73L660.236 433.172L659.858 431.221L655.775 430.596L654.061 429.021L654.745 427.379L651.287 418.996L653.679 417.345L653.665 415.058L651.576 412.505L652.608 409.913L649.859 408.646L649.485 403.446L641.606 403.518L644.354 399.957L642.955 397.348L643.656 393.778L638.85 393.2L636.779 392.268L637.788 389.95L635.046 387.404L638.116 385.404L638.122 383.825L635.708 382.219L635.024 376.048L633.312 375.79L633.985 371.88L635.66 371.178L636.35 366.961L639.081 364.639L638.744 361.383L636.019 360.464L636.662 358.486L639.058 356.805L637.668 355.211L639.674 352.948L637.961 350.944L639.678 349.23L643.352 348.536L643.448 342.188L645.161 342.614L648.665 341.185L650.355 345.503L652.345 346.297L654.276 345.433L655.433 347.04L659.471 346.167L662.819 347.1L664.649 349.171L668.969 351.152L671.69 350.996L671.947 353.119L673.968 354.119L676.038 352.705L677.761 353.117L681.102 349.569L683.168 350.998L685.231 355.187L689.59 356.4L692.305 354.739L698.103 355.41L698.115 357.338L700.824 361.505L703.272 361.837L706.361 364.078L710.904 364.11L712.351 361.902L716.208 360.986L720.099 361.248L722.076 362.933L722.744 365.85L720.986 368.71L721.295 371.886L723.516 378.691L719.313 383.65L717.723 384.207L715.344 387.746L714.673 390.936L710.056 391L707.558 392.654L707.96 395.474L711.709 400.826L714.559 399.222L718.246 400.79L719.255 398.882L721.069 398.522L721.322 401.667L718.413 404.957L710.68 403.042L710.387 406.197L708.972 407.129L708.407 413.705L706.658 416.123L708.029 417.488L711.658 417.043L714.357 417.967L715.438 420.681L714.99 423.328L718.954 427.653L719.015 429.103L715.831 431.495L718.493 432.421L721.13 431.318L722.545 433.868L722.075 436.3L720.016 436.86L719.069 441.725L716.469 448.698L717.685 449.417L716.741 452.118L717.111 455.53L713.94 458.76L710.148 458.555L706.286 459.547L703.25 458.025L700.179 457.565L697.798 458.497L694.245 458.652L690.513 460.455L687.832 459.419Z" fill="#CDD5E0" fill-opacity="0.66" stroke="white" style="fill:#CDD5E0;fill:color(display-p3 0.8039 0.8353 0.8784);fill-opacity:0.66;stroke:white;stroke:white;stroke-opacity:1;" stroke-width="1.76785"/>
<path d="M150.614 337.753L154.098 339.272L152.468 342.2L153.587 344.432L153.383 348.302L158.11 354.631L160.562 356.185L159.68 360.376L158.032 362.656L154.929 364.343L151.096 363.46L147.321 364.192L147.435 367.385L146.477 370.002L144.417 369.069L141.866 375.232L139.121 375.31L135.081 377.023L132.981 376.737L132.833 380.927L129.765 380.675L127.323 378.837L124.221 377.616L122.608 379.582L120.563 379.948L121.041 383.125L119.407 383.821L120.897 387.012L119.655 389.919L118.006 391.577L119.265 396.992L115.558 397.438L113.537 398.767L106.683 398.407L105.41 400.084L103.282 398.553L100.985 400.298L96.507 399.846L94.7723 398.992L91.791 400.732L91.8261 402.313L88.5762 405.044L86.4298 409.951L85.9874 414.795L86.4405 417.327L85.5981 420.259L82.8571 420.387L79.0821 419.303L78.6635 417.694L75.9724 417.82L71.8846 417.059L71.8123 415.429L69.9795 411.965L64.2898 412.489L63.8298 410.261L61.4942 408.382L61.1613 406.427L62.6485 404.821L61.9256 402.882L60.7444 397.531L58.131 395.017L57.1585 390.21L59.5325 387.752L59.8225 385.318L56.1292 378.958L56.4393 376.308L55.3374 374.431L55.8968 372.283L59.4349 368.996L60.8802 365.95L64.8954 363.177L65.3422 361.766L69.8413 357.581L80.7135 346.71L81.4536 345.101L85.5204 342.362L88.4929 339.504L96.9602 333.554L98.3426 330.766L102.027 328.993L107.005 329.822L110.905 328.272L111.926 326.46L113.721 318.558L113.312 317.577L115.538 316.795L118.679 320.198L121.421 321.008L122.451 319.675L125.571 320.504L126.674 323.35L128.707 322.636L130.176 325.763L131.581 326.057L131.35 329.919L135.886 332.688L135.633 334.591L138.402 335.173L140.074 334.171L143.941 334.675L144.933 333.071L148.175 337.153L150.614 337.753Z" fill="#CDD5E0" fill-opacity="0.66" stroke="white" style="fill:#CDD5E0;fill:color(display-p3 0.8039 0.8353 0.8784);fill-opacity:0.66;stroke:white;stroke:white;stroke-opacity:1;" stroke-width="1.76785"/>
<path d="M452.628 467.603L452.363 471.482L455.136 471.792L454.165 476.619L454.575 481.448L452.151 481.434L450.81 482.751L451.583 488.188L455.728 489.162L455.712 490.132L457.147 494.361L457.899 498.876L457.966 503.679L456.605 504.648L459.74 508.871L457.669 509.51L455.601 511.735L452.2 512.986L450.13 516.841L456.668 521.101L454.992 523.316L451.858 522.351L451.515 527.173L451.871 530.386L447.097 531.629L442.642 531.886L441.6 530.59L435.823 530.169L435.477 532.12L432.742 531.13L429.392 531.433L428.046 533.673L425.305 532.368L422.98 533.657L420.977 535.909L418.253 537.47L417.911 540.039L414.177 541.574L413.548 538.097L412.201 536.18L412.543 531.14L409.532 533.362L409.528 535.57L410.866 537.134L409.817 542.189L406.373 543.402L400.047 541.215L398.244 541.554L396.473 543.747L393.589 542.686L393.202 540.528L389.664 542.39L388.482 544.04L382.38 542.661L382.579 538.772L381.888 532.069L380.071 531.12L376.116 527.015L375.686 524.46L385.175 523.51L386.792 521.283L386.641 517.756L385.129 513.278L379.957 514.267L380.128 508.137L374.617 509.432L373.493 506.887L370.659 507.179L368.495 504.642L370.223 503.349L368.763 501.423L369.443 499.831L367.987 498.214L368.187 493.104L366.043 491.801L363.477 486.979L362.158 489.233L359.336 489.208L359.669 487.313L352.003 488.28L349.523 487.014L348.312 481.21L350.722 478.957L349.282 477.027L346.175 477.39L345.661 470.928L343.883 469.35L343.483 467.109L345.093 462.623L347.205 462.265L346.804 460.026L349.892 458.74L355.781 458.405L358.586 459.398L360.989 459.075L362.692 457.13L366.881 459.074L370.71 459.04L373.789 457.78L374.745 455.53L379.605 455.827L381.057 458.05L383.128 458.684L383.565 461.885L387.005 461.884L392.149 460.888L395.271 462.466L398.682 460.829L401.525 463.065L403.934 463.023L404.679 465.91L402.619 466.255L403.033 469.809L406.832 470.091L407.926 472.973L406.936 475.191L406.676 479.375L410.472 479.039L414.197 477.732L416.646 479.001L417.381 480.878L421.13 480.576L421.792 477.349L424.844 477.015L426.614 478.601L429.734 478.922L433.511 477.948L435.545 478.247L438.322 476.942L439.975 474.39L438.547 471.173L440.58 468.259L444.363 467.934L446.108 468.588L448.154 466.329L451.913 465.338L452.628 467.603Z" fill="#CDD5E0" fill-opacity="0.66" stroke="white" style="fill:#CDD5E0;fill:color(display-p3 0.8039 0.8353 0.8784);fill-opacity:0.66;stroke:white;stroke:white;stroke-opacity:1;" stroke-width="1.76785"/>
<path d="M346.806 460.025L347.207 462.264L345.095 462.622L343.485 467.109L343.884 469.35L345.662 470.927L346.176 477.39L349.284 477.027L350.724 478.957L348.313 481.21L349.524 487.014L352.004 488.28L359.67 487.313L359.337 489.208L362.16 489.233L363.478 486.978L366.045 491.801L368.188 493.104L367.988 498.214L369.444 499.831L368.764 501.423L370.224 503.349L368.497 504.642L370.661 507.178L373.494 506.887L374.618 509.432L380.129 508.137L379.958 514.267L385.131 513.278L386.642 517.756L386.793 521.283L385.176 523.51L375.687 524.46L376.117 527.014L380.073 531.119L381.889 532.069L382.58 538.772L382.381 542.661L380.724 542.769L368.153 547.668L366.138 547.419L364.554 550.657L365.824 551.885L365.702 555.156L364.614 557.773L362.51 559.778L358.666 566.348L353.546 573.941L347.686 579.541L342.623 585.796L327.599 597.447L322.804 597.259L320.926 594.729L321.542 593.446L321.711 588.885L320.132 588.968L319.104 591.577L319.655 593.794L318.018 595.117L317.931 603.18L319.257 603.761L317.658 607.035L319.646 608.904L322.567 607.584L323.945 608.829L324.133 614.947L322.989 620.133L320.368 620.834L320.133 615.334L318.247 612.8L315.44 610.748L310.483 609.215L308.38 609.867L303.826 609.569L301.308 610.569L297.854 612.978L291.834 615.136L291.286 618.146L285.271 615.151L283.795 618.104L284.326 620.55L281.039 620.641L276.333 619.468L273.637 617.964L267.062 615.465L264.981 611.617L264.53 608.372L261.43 607.209L264.221 603.092L265.871 602.322L269.729 603.804L270.925 605.596L274.213 604.671L273.657 601.206L275.561 600.348L274.816 595.862L273.551 595.267L275.696 591.887L278.066 590.194L282.565 588.97L282.382 587.462L285.557 585.996L284.597 581.822L285.806 578.783L292.27 577.307L293.651 576.303L294.084 573.829L292.487 571.645L296.542 566.554L292.19 562.308L293.837 559.672L291.753 552.224L297.987 548.618L300.402 548.772L304.095 546.725L303.729 554.235L307.255 554.702L306.924 551.783L308.399 549.848L310.397 552.38L312.475 550.403L314.272 553.374L316.732 555.286L318.033 557.723L321.515 557.78L321.227 553.668L323.797 553.896L324.509 551.644L327.472 556.777L329.741 557.753L332.165 555.633L334.737 556.783L337.259 555.633L334.081 550.065L332.168 550.242L330.055 547.898L332.421 546.84L332.975 545.161L332.223 541.936L333.228 539.773L333.48 535.799L329.624 531.293L329.276 529.174L326.219 530.361L324.367 530.004L323.774 527.222L320.523 526.859L318.632 524.469L319.263 517.149L316.612 518.373L315.129 515.588L318.125 514.984L316.955 509.38L318.702 508.33L318.13 502.687L314.75 502.759L314.238 505.445L312.343 506.272L310.36 505.247L310.186 501.544L308.297 501.665L307.822 498.666L304.888 499.306L303.157 498.543L302.631 496.249L300.285 492.53L302.922 491.319L304.588 487.591L303.836 483.008L305.63 481.13L304.562 478.966L303.42 474.031L302.634 468.177L299.577 468.723L298.273 470.997L294.848 468.941L293.061 470.198L289.716 465.941L289.749 463.304L293.643 462.38L294.177 458.696L297.307 459.825L298.864 456.369L301.981 458.812L306.379 461.395L310.801 461.336L311.841 460.068L314.93 460.963L317.976 460.934L318.963 459.664L322.057 459.587L322.018 456.776L326.045 455.118L330.849 456.311L332.518 454.072L336.738 459.474L346.806 460.025Z" fill="#CDD5E0" fill-opacity="0.66" stroke="white" style="fill:#CDD5E0;fill:color(display-p3 0.8039 0.8353 0.8784);fill-opacity:0.66;stroke:white;stroke:white;stroke-opacity:1;" stroke-width="1.76785"/>
<path d="M521.425 346.471L522.529 350.95L520.54 352.969L519.218 355.913L519.963 358.189L523.397 360.636L527.148 361.8L530.16 361.731L532.213 363.283L533.325 368.423L535.056 370.953L540.512 371.445L542.585 373.954L544.002 377.505L540.93 377.631L541.333 379.533L544.044 379.777L544.068 381.745L538.625 380.948L537.988 383.214L540.038 384.459L540.753 386.74L537.754 390.71L534.414 393.076L529.716 392.883L527.648 391.325L526.31 393.319L526.055 396.572L528.144 401.065L526.108 400.16L520.321 399.659L517.635 401.016L516.305 403.357L511.515 404.415L510.891 407.379L505.079 407.512L503.074 410.143L501.106 416.672L502.867 418.919L501.161 420.879L502.599 423.448L500.55 425.423L498.138 423.86L495.384 423.275L494.307 421.04L490.476 419.137L488.08 418.84L485.63 417.271L481.47 415.418L479.042 415.423L476.259 413.862L474.24 416.785L471.448 416.185L466.254 416.236L463.1 414.985L462.352 411.812L463.357 410.158L461.241 407.952L462.246 406.298L460.121 403.786L458.742 404.444L459.509 408.272L457.077 408.001L455.601 403.189L449.65 401.667L449.644 400.048L444.418 399.809L441.309 400.817L440.255 399.534L437.454 399.567L431.482 396.75L429.346 394.53L430.336 391.97L437.003 394.112L440.474 394.061L438.324 391.541L437.535 387.716L440.593 383.83L440.534 381.91L439.091 378.718L436.231 376.177L433.086 375.256L432.641 371.428L427.726 368.629L425.211 365.812L427.305 365.456L427.193 361.316L421.867 356.606L420.688 351.493L418.19 350.592L414.958 346.788L414.177 343.932L415.533 342.989L416.184 340.408L420.02 340.061L422.711 335.866L424.822 336.772L428.338 337.034L429.452 339.572L439.596 339.083L443.065 337.722L444.737 335.15L448.915 332.501L450.26 330.242L453.406 330.839L457.274 330.409L457.194 328.194L462.125 329.681L464.279 331.52L469.13 330.782L474.071 332.253L477.906 332.151L479.967 330.462L479.568 328.868L482.677 328.485L484.087 327.168L486.895 329.62L490.336 329.216L493.429 327.476L494.814 328.722L495.564 332.562L500.471 335.916L501.165 338.453L503.301 340.317L505.011 340.283L505.377 342.837L507.488 345.049L505.46 346.406L507.889 349.214L512.666 349.383L512.992 347.405L516.699 346.312L521.425 346.471Z" fill="#CDD5E0" fill-opacity="0.66" stroke="white" style="fill:#CDD5E0;fill:color(display-p3 0.8039 0.8353 0.8784);fill-opacity:0.66;stroke:white;stroke:white;stroke-opacity:1;" stroke-width="1.76785"/>
<path d="M248.719 275.712L244.804 277.563L246.055 281.355L243.147 280.246L241.448 282.626L242.947 284.134L239.565 286.515L240.468 290.996L238.126 292.711L236.496 295.657L236.571 297.911L234.984 300.859L233.198 300.941L230.508 302.947L232.101 307.718L231.495 310.651L232.864 318.371L230.14 321.031L230.361 326.163L229.346 326.874L226.841 325.325L222.67 327.071L221.669 328.736L217.818 327.879L213.686 329.617L213.048 331.596L208.339 337.226L207.639 336.897L202.248 342.543L198.06 342.654L194.344 346.306L191.948 346.695L189.368 343.548L185.833 341.711L184.51 343.705L181.643 341.847L179.935 342.822L177.611 345.775L171.333 345.638L169.985 346.93L167.886 346.009L163.784 349.007L160.804 352.314L158.351 352.68L158.108 354.631L153.38 348.301L153.585 344.432L152.466 342.199L154.096 339.272L150.611 337.752L154.29 333.795L152.454 329.962L152.704 327.059L151.261 324.813L154.028 324.426L157.183 325.665L159.225 324.631L158.746 321.086L161.494 320.041L163.185 318.38L165.296 318.694L169.396 316.966L173.87 316.206L174.677 319.108L178.512 319.966L180.192 318.342L180.725 312.847L182.007 310.555L186.209 311.42L185.097 308.858L184.949 303.688L188.022 303.29L189.739 301.622L189.633 299.71L187.522 297.502L184.389 297.247L183.598 295.004L187.072 294.927L188.701 291.958L186.531 289.099L184.825 288.511L183.676 285.952L180.827 282.804L181.135 281.172L176.599 280.287L174.479 278.724L173.653 274.535L171.195 273.302L172.797 269.091L170.625 266.877L173.715 265.501L177.01 259.726L174.883 257.604L175.172 255.458L177.942 252.73L174.774 252.161L174.09 250.966L180.685 251.509L182.454 250.289L186.311 252L189.533 251.353L191.997 252.183L194.708 254.877L201.036 255.329L205.893 259.128L207.274 259.392L210.486 257.819L216.068 258.565L217.725 261.553L219.226 261.083L223.552 262.123L224.047 261.188L231.239 261.096L231.253 266.665L233.528 268.24L232.28 271.057L236.683 270.01L240.673 270.33L244.191 269.209L246.018 270.42L250.337 270.607L250.088 273.107L248.719 275.712Z" fill="#CDD5E0" fill-opacity="0.66" stroke="white" style="fill:#CDD5E0;fill:color(display-p3 0.8039 0.8353 0.8784);fill-opacity:0.66;stroke:white;stroke:white;stroke-opacity:1;" stroke-width="1.76785"/>
<path d="M490.256 664.201L487.8 663.938L483.858 661.637L482.646 658.613L477.121 658.098L474.23 655.798L475.467 652.821L479.226 649.489L479.281 645.576L478.662 641.643L480.368 639.006L481.336 641.281L484.324 642.283L482.295 644.579L482.645 646.877L486.98 646.495L489.014 648.107L488.308 651.068L484.917 653.106L486.94 656.899L490.404 657.791L492.986 656.224L495.909 661.358L490.54 663.523L490.256 664.201Z" fill="#CDD5E0" fill-opacity="0.66" stroke="white" style="fill:#CDD5E0;fill:color(display-p3 0.8039 0.8353 0.8784);fill-opacity:0.66;stroke:white;stroke:white;stroke-opacity:1;" stroke-width="1.76785"/>
<path d="M546.837 333.479L542.469 335.86L541.174 337.239L538.06 336.059L534.722 337.503L532.452 341.807L529.387 340.661L526.068 343.403L523.031 344.473L521.426 346.471L516.7 346.312L512.993 347.406L512.667 349.383L507.89 349.214L505.461 346.406L507.489 345.049L505.378 342.837L505.012 340.283L503.302 340.318L501.166 338.454L500.472 335.916L495.565 332.562L494.815 328.722L493.43 327.477L490.337 329.217L486.897 329.62L484.088 327.168L482.678 328.485L479.569 328.869L479.968 330.462L477.907 332.152L474.072 332.254L469.132 330.783L464.28 331.52L462.126 329.681L457.195 328.195L457.275 330.409L453.407 330.839L450.261 330.243L451.252 327.386L451.512 322.598L453.555 321.577L452.828 319.689L455.567 317.082L453.814 315.532L453.353 310.469L455.084 308.851L454.664 306.305L449.008 304.533L450.012 302.29L449.618 300.395L445.313 297.926L446.329 296.033L445.246 294.462L447.674 292.829L448.663 290.244L448.821 283.919L450.584 283.561L450.089 280.072L450.736 277.198L452.122 276.851L453.046 272.671L450.045 268.014L451.417 266.07L448.85 261.661L450.581 259.405L450.526 256.516L454.763 253.272L458.706 253.485L459.812 250.903L456.601 249.115L458.566 247.281L460.311 248.213L462.642 247.528L462.557 245.333L460.515 245.059L457.06 241.559L455.62 238.765L457.833 235.074L459.043 230.558L462.796 230.126L464.34 231.964L467.669 231.24L469.855 229.61L473.768 229.72L474.285 232.152L477.184 232.168L477.697 234.429L484.526 240.829L483.024 244.381L484.031 247.228L486.528 250.273L490.622 252.688L496.443 257.139L495.71 259.244L497.169 261.555L496.15 262.55L492.634 262.877L490.969 264.029L486.078 264.797L484.836 266.101L490.918 269.866L493.534 272.996L490.415 280.052L494.858 282.155L492.449 287.542L495.974 288.819L497.752 286.878L501.591 287.832L506.726 287.552L508.106 290.694L513.003 291.11L513.403 289.834L518.62 287.539L524.133 288.126L524.533 291.877L527.297 296.722L530.456 296.122L531.564 294.978L535.789 296.529L535.903 297.651L533.405 299.913L533.126 302.359L535.476 303.101L535.253 305.675L536.502 306.867L536.702 309.419L539.194 311.629L538.598 313.487L539.841 316.071L536.841 318.845L536.862 321.584L538.906 324.866L541.626 327.501L543.64 327.868L544.041 331.285L546.837 333.479Z" fill="#CDD5E0" fill-opacity="0.66" stroke="white" style="fill:#CDD5E0;fill:color(display-p3 0.8039 0.8353 0.8784);fill-opacity:0.66;stroke:white;stroke:white;stroke-opacity:1;" stroke-width="1.76785"/>
<path d="M191.948 346.695L192.776 350.866L190.676 350.917L190.875 356.417L188.491 357.459L188.58 360.995L190.098 363.54L189.101 364.505L191.699 369.928L190.371 371.886L191.855 373.121L191.926 376.05L189.587 378.014L190.021 380.259L187.298 383.257L189.495 384.784L189.916 387.379L189.841 393.805L190.616 396.065L188.601 398.045L189.082 401.565L187.875 406.116L188.718 410.265L188.08 411.599L188.04 418.346L189.892 420.564L188.219 422.21L189.674 423.493L189.182 428.299L192.501 431.801L192.64 434.395L196.571 436.249L193.489 437.586L190.62 436.032L186.452 436.401L185.347 434.822L185.59 432.549L178.531 431.041L176.555 432.672L171.796 427.91L168.708 428.26L165.583 427.334L166.062 423.451L162.807 420.324L158.878 418.129L158.455 415.917L155.033 416.284L152.482 420.462L151.332 418.258L150.71 412.528L146.626 412.593L146.057 408.751L143.644 408.5L138.783 406.062L140.718 404.408L141.668 402.134L138.892 401.555L136.697 398.419L138.615 396.153L136.486 393.635L136.033 391.422L137.303 389.475L136.177 387.228L134.425 386.655L132.83 380.927L132.978 376.737L135.078 377.023L139.119 375.31L141.863 375.232L144.414 369.069L146.474 370.002L147.432 367.385L147.318 364.191L151.094 363.46L154.926 364.343L158.03 362.656L159.678 360.376L160.56 356.185L158.108 354.631L158.351 352.68L160.804 352.314L163.784 349.007L167.887 346.01L169.985 346.93L171.333 345.638L177.611 345.775L179.935 342.822L181.643 341.847L184.51 343.705L185.833 341.711L189.368 343.548L191.948 346.695Z" fill="#CDD5E0" fill-opacity="0.66" stroke="white" style="fill:#CDD5E0;fill:color(display-p3 0.8039 0.8353 0.8784);fill-opacity:0.66;stroke:white;stroke:white;stroke-opacity:1;" stroke-width="1.76785"/>
<path d="M61.9238 402.882L62.6467 404.821L61.1594 406.427L61.4924 408.382L63.8279 410.261L64.288 412.489L69.9776 411.965L71.8105 415.429L71.8827 417.059L75.9706 417.82L78.6616 417.694L79.0802 419.303L82.8552 420.387L85.5962 420.259L88.0016 421.424L90.599 425.456L93.6379 425.297L94.0958 427.874L96.2251 430.335L98.6289 430.22L98.1509 434.41L100.229 435.548L102.116 432.937L107.87 431.698L107.477 437.784L108.981 440.291L112.095 441.439L114.004 439.13L115.487 441.281L120.096 445.277L119.862 447.507L121.998 448.725L120.446 451.63L121.247 453.831L124.083 456.582L124.572 459.117L122.623 460.419L122.746 464.124L120.054 464.593L116.887 463.14L114.424 466.26L108.818 466.687L105.107 466.029L103.888 464.283L98.4783 462.504L94.5353 463.892L93.3726 461.397L89.786 460.468L87.4133 461.243L85.2252 459.384L83.1445 459.514L80.3575 461.227L77.8287 460.708L72.1955 456.145L72.1165 453.893L67.5194 452.786L66.1619 453.794L64.5523 458.088L58.7008 457.191L57.721 460.25L55.5306 458.595L57.0799 455.841L55.311 451.396L52.1935 450.949L49.4701 452.336L46.4656 451.099L46.4249 448.585L44.0347 444.132L41.0281 443.024L38.2739 443.606L37.2845 440.183L33.2435 432.867L30.4839 433.575L32.0983 425.119L32.9972 423.21L34.8777 422.389L37.593 419.214L39.6495 418.581L41.6225 409.063L45.7661 402.571L48.2586 402.407L49.3452 398.055L50.9765 397.694L53.5004 400.69L58.2565 400.731L61.9238 402.882Z" fill="#CDD5E0" fill-opacity="0.66" stroke="white" style="fill:#CDD5E0;fill:color(display-p3 0.8039 0.8353 0.8784);fill-opacity:0.66;stroke:white;stroke:white;stroke-opacity:1;" stroke-width="1.76785"/>
<path d="M315.77 377.462L317.539 378.692L315.851 380.299L317.661 383.145L318.119 387.95L319.463 388.567L315.834 392.483L317.313 395.331L319.673 395.909L321.155 399.367L324.579 400.252L324.667 403.138L321.365 407.678L321.452 410.26L323.235 413.066L321.624 416.301L324.724 417.842L324.426 420.074L325.878 421.961L325.921 424.195L329.711 425.429L329.465 427.97L332.919 430.47L334.721 433.013L335.893 438.757L333.549 440.994L330.177 443.273L326.846 446.515L326.253 449.367L326.043 455.118L322.017 456.776L322.056 459.587L318.962 459.664L317.974 460.934L314.929 460.964L311.84 460.068L310.8 461.336L306.378 461.395L301.98 458.813L298.862 456.37L297.305 459.825L294.175 458.696L293.642 462.381L289.748 463.304L289.726 461.107L281.985 459.692L278.963 458.201L277.205 460.635L273.928 462.695L273.077 457.892L271.359 457.865L270.058 453.847L265.015 455.956L263.938 453.389L260.776 454.516L260.413 450.776L258.63 449.38L253.883 449.197L251.388 446.993L252.395 445.785L247.694 441.952L244.546 442.713L240.095 440.94L238.811 441.435L236.439 438.874L236.077 434.346L232.92 432.159L234.224 429.211L234.986 419.544L233.872 416.054L235.19 414.074L234.072 412.469L235.725 408.878L238.197 408.809L238.78 405.235L241.231 405.821L242.551 403.49L244.679 403.453L248.229 404.585L250.227 401.961L252.712 403.152L252.904 397.033L248.66 385.227L250.376 383.868L249.541 380.705L251.582 377.694L249.78 376.825L251.754 372.548L254.525 370.819L258.708 370.032L260.844 370.903L264.697 369.798L271.691 369.528L273.105 370.773L275.161 368.101L277.586 369.011L279.698 368.606L282.158 370.472L282.81 368.519L287.34 369.625L287.996 367.06L291.74 365.97L292.381 364.321L295.592 367.756L296.407 371.907L297.498 372.834L295.796 375.129L295.871 377.05L297.365 380.862L302.887 380.694L307.684 381.167L307.608 378.635L310.387 379.177L313.71 377.189L315.77 377.462Z" fill="#CDD5E0" fill-opacity="0.66" stroke="white" style="fill:#CDD5E0;fill:color(display-p3 0.8039 0.8353 0.8784);fill-opacity:0.66;stroke:white;stroke:white;stroke-opacity:1;" stroke-width="1.76785"/>
<path d="M174.09 250.966L174.774 252.161L177.942 252.729L175.172 255.458L174.883 257.604L177.01 259.726L173.715 265.501L170.625 266.877L172.797 269.091L171.195 273.301L173.653 274.534L174.479 278.724L176.599 280.287L181.135 281.171L180.827 282.804L183.676 285.952L184.825 288.511L186.531 289.099L188.701 291.958L187.072 294.927L183.598 295.003L184.389 297.246L187.522 297.502L189.633 299.71L189.739 301.622L188.022 303.29L184.949 303.688L185.097 308.857L186.209 311.42L182.007 310.555L180.725 312.847L180.192 318.341L178.512 319.966L174.677 319.108L173.87 316.206L169.396 316.966L165.296 318.694L163.185 318.38L161.494 320.04L158.746 321.086L159.225 324.63L157.183 325.665L154.028 324.426L151.261 324.813L152.704 327.059L152.454 329.962L154.29 333.795L150.611 337.752L148.172 337.153L144.93 333.07L143.938 334.675L140.072 334.171L138.399 335.172L135.63 334.591L135.883 332.688L131.348 329.919L131.578 326.057L130.174 325.763L128.704 322.636L126.672 323.35L125.568 320.503L122.449 319.674L121.419 321.008L118.677 320.197L115.536 316.795L113.309 317.576L110.956 313.086L111.304 310.672L109.493 310.215L110.484 306.667L114.65 307.134L116.414 306.108L112.006 302.891L110.188 300.48L108.778 296.92L108.288 293.721L106.799 293.499L107.001 289.823L102.7 286.171L102.016 283.179L99.6015 282.202L99.1013 280.652L101.706 274.837L100.772 270.143L101.961 265.802L101.708 262.756L107.643 262.437L107.802 263.528L111.512 263.756L111.62 266.316L114.333 266.869L117.851 265.088L119.505 262.547L124.127 260.092L127.036 256.67L126.501 254.09L128.648 250.152L132.443 250.235L136.656 249.516L144.195 251.342L149.162 250.346L150.919 251.255L154.392 248.709L161.699 247.941L164.741 249.982L169.225 251.051L172.003 250.097L174.09 250.966Z" fill="#CDD5E0" fill-opacity="0.66" stroke="white" style="fill:#CDD5E0;fill:color(display-p3 0.8039 0.8353 0.8784);fill-opacity:0.66;stroke:white;stroke:white;stroke-opacity:1;" stroke-width="1.76785"/>
<path d="M548.801 556.268L546.152 555.967L545.763 551.029L544.085 550.852L543.501 554.735L540.863 557.264L539.929 559.527L538.606 559.418L538.133 554.615L537.016 550.024L532.898 548.594L530.87 549.359L528.757 545.746L525.336 546.841L523.585 545.2L524.939 543.144L524.492 539.45L521.427 539.552L519.697 538.218L520.348 536.197L524.396 534.767L524.354 531.099L526.393 530.736L525.633 527.767L523.929 527.805L522.867 523.834L520.113 523.877L516.69 521.607L515.306 518.976L514.59 515.697L512.826 513.393L511.452 507.849L513.129 507.464L511.072 504.203L504.294 506.268L502.547 501.975L501.502 497.742L497.39 494.829L503.158 492.821L513.98 489.737L517.352 489.669L521.771 491.576L525.838 491.467L528.235 490.775L527.2 488.181L527.486 485.213L526.107 482.637L527.745 479.956L527.751 477.356L525.397 477.736L525.696 474.11L522.593 470.606L524.929 466.309L524.176 462.385L527.201 460.035L530.25 459.97L532.273 458.283L538.686 456.806L542.027 456.716L544.101 457.66L551.248 459.379L557.266 455.604L558.67 457.548L561.372 457.434L561.744 459.393L567.124 457.268L568.502 459.475L570.203 459.108L572.287 465.896L573.27 465.835L574.338 470.661L577.036 469.612L577.739 471.199L582.101 471.32L583.788 469.978L587.16 470.774L591.856 468.658L591.865 472.185L595.27 472.707L597.997 478.743L601.733 480.254L605.146 483.991L606.831 482.637L609.585 483.548L612.29 486.358L615.397 487.903L619.152 487.542L617.097 491.756L614.065 493.123L614.387 494.69L611.651 496.697L607.221 496.169L608.96 501.925L605.569 503.31L610.702 506.356L611.028 508.633L615.782 511.17L616.791 513.796L613.428 515.673L612.753 517.314L614.108 519.253L610.738 521.128L608.395 523.328L606.488 528.019L605.13 528.688L600.959 526.051L598.602 526.121L589.08 530.066L583.312 536.143L579.647 534.115L577.356 535.23L570.741 535.719L562.908 540.826L560.639 544.852L558.978 546.54L552.743 550.297L548.801 556.268Z" fill="#CDD5E0" fill-opacity="0.66" stroke="white" style="fill:#CDD5E0;fill:color(display-p3 0.8039 0.8353 0.8784);fill-opacity:0.66;stroke:white;stroke:white;stroke-opacity:1;" stroke-width="1.76785"/>
<path d="M310.724 283.506L312.197 286.499L310.59 289.171L308.581 289.201L307.955 291.533L308.728 294.439L312.596 296.975L316.464 300.806L315.187 302.75L314.689 307.601L316.833 311.123L316.007 315.977L319.483 318.162L319.236 320.722L315.5 322.398L316.331 325.919L315.077 330.387L316.493 331.002L316.24 334.217L319.027 335.794L321.48 338.629L321.898 340.848L323.606 341.115L322.647 344.026L323.4 346.247L322.108 348.506L322.234 353.295L323.658 354.867L323.074 358.742L324.832 360.925L322.869 362.881L320.561 366.796L314.562 370.737L314.348 374.618L316.026 374.54L315.771 377.462L313.71 377.189L310.387 379.177L307.608 378.635L307.685 381.167L302.888 380.694L297.365 380.862L295.871 377.05L295.797 375.129L297.499 372.834L296.407 371.907L295.592 367.756L292.382 364.321L291.74 365.971L287.996 367.06L287.34 369.625L282.81 368.519L282.158 370.473L279.699 368.606L277.587 369.011L275.162 368.102L273.105 370.773L271.691 369.528L264.698 369.799L260.844 370.903L258.709 370.032L254.525 370.819L251.754 372.548L248.126 370.067L245.275 369.216L244.03 363.778L241.559 363.239L242.507 359.949L241.717 357.402L244.191 357.636L246.9 354.345L244.731 353.423L244.646 351.2L247.063 349.819L243.774 346.389L243.699 343.819L240.564 345.527L236.982 342.737L236.857 340.471L233.995 339.307L233.985 338.002L231.1 336.14L233.341 330.94L229.724 328.449L229.347 326.874L230.362 326.164L230.141 321.032L232.865 318.371L231.496 310.651L232.102 307.718L230.509 302.947L233.199 300.941L234.985 300.86L236.572 297.912L236.497 295.657L238.127 292.712L240.469 290.997L239.566 286.515L242.949 284.135L241.45 282.626L243.148 280.247L246.057 281.356L244.805 277.564L248.72 275.712L251.657 277.465L253.968 272.417L254.548 269.579L257.052 269.849L257.827 272.543L259.34 273.524L263.621 273.523L267.01 269.268L270.821 266.831L271.592 270.299L274.177 273.884L276.035 274.044L278.623 272.313L282.733 274.187L285.663 274.313L285.255 276.771L286.784 280.594L289.422 278.553L290.953 275.46L293.952 273.766L298.886 273.514L301.285 270.816L303.386 269.755L305.443 273.745L307.199 275.183L306.291 278.028L309.066 280.642L310.724 283.506Z" fill="#CDD5E0" fill-opacity="0.66" stroke="white" style="fill:#CDD5E0;fill:color(display-p3 0.8039 0.8353 0.8784);fill-opacity:0.66;stroke:white;stroke:white;stroke-opacity:1;" stroke-width="1.76785"/>
</g>
<defs>
<filter id="filter0_b_511_131" x="-22.5272" y="-22.5272" width="799.054" height="857.504" filterUnits="userSpaceOnUse" color-interpolation-filters="sRGB">
<feFlood flood-opacity="0" result="BackgroundImageFix"/>
<feGaussianBlur in="BackgroundImageFix" stdDeviation="11.2636"/>
<feComposite in2="SourceAlpha" operator="in" result="effect1_backgroundBlur_511_131"/>
<feBlend mode="normal" in="SourceGraphic" in2="effect1_backgroundBlur_511_131" result="shape"/>
</filter>
</defs>
</svg>
