<svg width="30" height="30" viewBox="0 0 30 30" fill="none" xmlns="http://www.w3.org/2000/svg">
<g clip-path="url(#clip0_565_7)">
<path d="M9 12V22M21 22V17C21 15.9391 20.5786 14.9217 19.8284 14.1716C19.0783 13.4214 18.0609 13 17 13C15.9391 13 14.9217 13.4214 14.1716 14.1716C13.4214 14.9217 13 15.9391 13 17V22V12M8 9H10M3 1H27C27.5304 1 28.0391 1.21071 28.4142 1.58579C28.7893 1.96086 29 2.46957 29 3V27C29 27.5304 28.7893 28.0391 28.4142 28.4142C28.0391 28.7893 27.5304 29 27 29H3C2.46957 29 1.96086 28.7893 1.58579 28.4142C1.21071 28.0391 1 27.5304 1 27V3C1 2.46957 1.21071 1.96086 1.58579 1.58579C1.96086 1.21071 2.46957 1 3 1Z" stroke="#012C65" stroke-width="2"/>
</g>
<defs>
<clipPath id="clip0_565_7">
<rect width="30" height="30" fill="white"/>
</clipPath>
</defs>
</svg>
